<?xml version="1.0" encoding="UTF-8"?>
<svg version="1.1" xmlns="http://www.w3.org/2000/svg" width="1080" height="1080">
<path d="M0 0 C0.66 0 1.32 0 2 0 C2 291.39 2 582.78 2 883 C-64 883 -130 883 -198 883 C-198.76094828 878.43431031 -199.12449767 874.6696706 -199.12304783 870.10846901 C-199.12420167 869.43632671 -199.12535552 868.76418441 -199.12654433 868.07167417 C-199.12918942 865.82132741 -199.12470623 863.57105231 -199.12025452 861.32070923 C-199.12069065 859.69035938 -199.12156633 858.0600096 -199.12284368 856.4296602 C-199.12508038 851.95098726 -199.12107861 847.47233822 -199.11606562 842.99366832 C-199.1117495 838.16346281 -199.11320837 833.33325866 -199.1139679 828.50305176 C-199.11449239 820.13483994 -199.11135333 811.76663591 -199.10573006 803.39842606 C-199.09760502 791.29938019 -199.0949988 779.20033809 -199.09374207 767.10128979 C-199.09155313 747.47165851 -199.08489732 727.84203137 -199.07543945 708.21240234 C-199.06626125 689.14339214 -199.05918241 670.07438306 -199.05493164 651.00537109 C-199.05466892 649.83007118 -199.05440619 648.65477126 -199.05413551 647.44385619 C-199.05283048 641.54775593 -199.05156677 635.65165567 -199.05032361 629.75555539 C-199.03995592 580.83703406 -199.02234189 531.91851723 -199 483 C-200.21835696 483.00072864 -200.21835696 483.00072864 -201.4613272 483.001472 C-209.26433673 483.00592706 -217.06734562 483.00922114 -224.87035612 483.01133391 C-228.87818173 483.01245674 -232.88600626 483.01396909 -236.89383125 483.01650238 C-264.96169615 483.03375689 -293.02357732 482.85199786 -321.08984375 482.53643799 C-326.77991852 482.47332535 -332.47003948 482.41465074 -338.16015625 482.35546875 C-349.10681666 482.24102676 -360.05342341 482.12218192 -371 482 C-371 473.31516349 -362.29670427 465.9267237 -356.92578125 459.5859375 C-353.34444998 455.26840909 -350.02913412 450.75375655 -346.6875 446.25 C-341.28207292 438.96472376 -335.73189212 431.83746974 -329.94799805 424.84863281 C-327.20379248 421.60778308 -327.20379248 421.60778308 -325 418 C-324.34 418 -323.68 418 -323 418 C-322.72285156 417.42378906 -322.44570313 416.84757812 -322.16015625 416.25390625 C-317.40367582 407.01320185 -310.38775715 399.21377706 -303.73828125 391.3125 C-299.2524478 385.92636838 -295.15817903 380.42097406 -291.23217773 374.62548828 C-288.66563214 370.8700323 -285.90884268 367.48190122 -282.85546875 364.12109375 C-278.63966806 359.30176791 -274.87146153 354.09759827 -271 349 C-268.79373639 346.10258501 -266.58504853 343.20702885 -264.375 340.3125 C-263.82126709 339.58716064 -263.26753418 338.86182129 -262.69702148 338.11450195 C-257.90227381 331.84653572 -252.98814623 325.68224319 -248.015625 319.5546875 C-246.03466368 317.0439342 -244.16715117 314.48006559 -242.3125 311.875 C-236.52975907 303.88879831 -230.31664695 296.27174832 -223.60546875 289.046875 C-221.81731946 286.76709342 -220.49762924 284.32417041 -219.09155273 281.79785156 C-217.35472974 278.93720192 -215.1554035 276.48916648 -212.9375 274 C-208.89015478 269.34105292 -205.11082684 264.56709304 -201.5 259.5625 C-195.24441277 250.90194261 -188.64901044 242.53712819 -181.95703125 234.2109375 C-175.359207 226.00100829 -168.9640124 217.67365565 -162.67724609 209.22167969 C-161.31211568 207.39283831 -159.93822226 205.57088194 -158.5625 203.75 C-158.13694824 203.17620605 -157.71139648 202.60241211 -157.27294922 202.01123047 C-156.22951051 200.63672905 -155.12009931 199.31278179 -154 198 C-153.34 198 -152.68 198 -152 198 C-151.72285156 197.42378906 -151.44570313 196.84757813 -151.16015625 196.25390625 C-146.39059711 186.98779304 -139.35473738 179.14982344 -132.66796875 171.2421875 C-128.94678924 166.79198645 -125.52493025 162.3930885 -122.5 157.4375 C-120.25555582 153.79537922 -117.92950362 150.67783034 -115 147.5625 C-110.52407801 142.77448141 -106.64700789 137.64149392 -102.75 132.375 C-96.49785668 123.93083259 -90.00234623 115.74024349 -83.33056641 107.62597656 C-79.05627156 102.40270984 -75.0106049 97.03496973 -71.0625 91.5625 C-66.16612907 84.79454327 -61.0632948 78.24082822 -55.4375 72.0625 C-51.99343777 68.19479458 -49.35669061 63.96114731 -46.63671875 59.56640625 C-44.63513891 56.42789084 -42.55724503 53.70337332 -40 51 C-39.34 51 -38.68 51 -38 51 C-37.65775391 50.22269531 -37.65775391 50.22269531 -37.30859375 49.4296875 C-35.521378 46.11133468 -33.30212451 43.14579871 -31.0625 40.125 C-30.33051392 39.13306641 -30.33051392 39.13306641 -29.58374023 38.12109375 C-23.48211944 29.89550962 -17.11581071 21.88471353 -10.7109375 13.89453125 C-10.16493896 13.21326172 -9.61894043 12.53199219 -9.05639648 11.83007812 C-8.00016444 10.51373043 -6.94245194 9.19856888 -5.88305664 7.88476562 C-3.8123817 5.30941381 -1.83437282 2.75155923 0 0 Z M-49 145 C-49.98312362 146.24113624 -50.92241005 147.51702142 -51.84375 148.8046875 C-52.42632568 149.61099609 -53.00890137 150.41730469 -53.60913086 151.24804688 C-54.23311768 152.11494141 -54.85710449 152.98183594 -55.5 153.875 C-60.08073856 160.18492232 -64.72422501 166.08626382 -70.06640625 171.76171875 C-72.13398426 174.15509694 -73.73276345 176.61150388 -75.375 179.3125 C-78.41975103 184.31207963 -81.91822217 188.60927423 -85.73510742 193.01831055 C-92.29190329 200.60573211 -98.29618002 208.59192447 -104.125 216.75 C-106.51757978 220.07196835 -108.98100893 223.17351589 -111.75 226.1875 C-117.14039084 232.09579113 -121.76109851 238.58892727 -126.51708984 245.00732422 C-128.7156234 247.96162631 -130.9441707 250.89211397 -133.1875 253.8125 C-133.59468262 254.34270752 -134.00186523 254.87291504 -134.42138672 255.41918945 C-137.046811 258.8172627 -139.75306058 262.13732409 -142.5 265.4375 C-145.82883791 269.46130582 -148.88625337 273.59908184 -151.875 277.875 C-156.08820029 283.89232063 -160.6503328 289.51158518 -165.45703125 295.0625 C-170.56614474 300.82255413 -170.56614474 300.82255413 -174.75 307.25 C-176.46861386 310.39397218 -178.55965208 312.81719837 -181 315.4375 C-186.69445385 321.58374523 -191.58361924 328.28408675 -196.54443359 335.02587891 C-200.61226598 340.54290216 -204.74686767 345.99966056 -209 351.375 C-215.14775811 359.17391328 -221.24790698 367.0093342 -227.33398438 374.85644531 C-228.91043878 376.88476737 -230.49332701 378.90788198 -232.078125 380.9296875 C-232.98969813 382.09886884 -233.90116385 383.26813393 -234.8125 384.4375 C-235.60269531 385.44683594 -236.39289063 386.45617187 -237.20703125 387.49609375 C-239.14453297 389.94157711 -239.14453297 389.94157711 -240 393 C-240.99 393.33 -241.98 393.66 -243 394 C-244.49316722 395.95260329 -245.84931179 397.88357029 -247.1875 399.9375 C-251.95623601 407.03382179 -257.163674 413.65330269 -262.6875 420.1796875 C-263.14390869 420.72101318 -263.60031738 421.26233887 -264.07055664 421.82006836 C-265.37392362 423.36227344 -266.68482179 424.8981043 -267.99609375 426.43359375 C-270.15275178 428.90057953 -270.15275178 428.90057953 -271 432 C-230.39805414 434.38834976 -189.67028636 433.61266394 -149 434 C-148.67 565.67 -148.34 697.34 -148 833 C-115 833 -82 833 -48 833 C-48 605.96 -48 378.92 -48 145 C-48.33 145 -48.66 145 -49 145 Z " fill="#F79108" transform="translate(517,98)"/>
<path d="M0 0 C66 0 132 0 200 0 C200 132.33 200 264.66 200 401 C238.61 401 277.22 401 317 401 C335.48 401.33 353.96 401.66 373 402 C371.26057113 406.34857216 370.11349317 408.3408651 367.1875 411.75 C363.12900008 416.58747006 359.25498209 421.5328212 355.4375 426.5625 C351.33584271 431.9576211 347.19020649 437.30381899 342.93359375 442.578125 C340.28512512 445.89539883 337.70553021 449.26410833 335.12329102 452.63305664 C331.51858192 457.33329471 327.8883242 462.01324311 324.25 466.6875 C323.65751465 467.44869141 323.0650293 468.20988281 322.45458984 468.99414062 C321.24129875 470.55263998 320.02791926 472.11107053 318.81445312 473.66943359 C315.87486664 477.44517264 312.93749416 481.22263307 310 485 C306.45427972 489.55949384 302.90800104 494.1185484 299.359375 498.67578125 C291.49217805 508.78075867 283.64878117 518.90284059 275.8828125 529.0859375 C268.05011684 539.35415552 260.17551212 549.58526199 252.0703125 559.640625 C246.40839498 566.66749378 240.88698605 573.76891004 235.50463867 581.01245117 C231.56686268 586.29257781 227.48861615 591.44545735 223.35498047 596.57299805 C219.81652726 600.96573991 216.34960833 605.40402223 212.92260742 609.88452148 C209.37057126 614.52701525 205.78156867 619.13999221 202.1875 623.75 C197.53070968 629.72609829 192.90563684 635.72485291 188.3125 641.75 C183.99447935 647.41231009 179.63656696 653.03956061 175.22705078 658.63085938 C169.7208875 665.6139002 164.27141496 672.64093148 158.81591797 679.66357422 C156.99442692 682.00717053 155.17131223 684.34949427 153.34765625 686.69140625 C148.21598719 693.28223556 143.08731717 699.87485003 138 706.5 C131.10039094 715.4852752 124.12848881 724.41442988 117.16796875 733.35253906 C115.36167629 735.67229047 113.5557378 737.99231682 111.75 740.3125 C111.16395996 741.0653125 110.57791992 741.818125 109.97412109 742.59375 C106.58970874 746.94472838 103.22478229 751.30983558 99.875 755.6875 C96.35257045 760.28047187 92.75764581 764.80640883 89.125 769.3125 C84.97414663 774.4641599 80.94569616 779.6896996 77 785 C72.64355934 790.86288665 68.16071051 796.60014571 63.57250977 802.28295898 C59.78501874 806.98639128 56.09448376 811.757042 52.4375 816.5625 C48.51515895 821.71665063 44.57314642 826.85169041 40.5625 831.9375 C31.64534808 843.24769599 22.80377841 854.61576925 14.0625 866.0625 C13.25401611 867.12065918 13.25401611 867.12065918 12.42919922 868.20019531 C10.17355525 871.15285929 7.91902678 874.10633669 5.66796875 877.0625 C5.03503906 877.8875 4.40210938 878.7125 3.75 879.5625 C3.22921875 880.24441406 2.7084375 880.92632813 2.171875 881.62890625 C1.78515625 882.08136719 1.3984375 882.53382813 1 883 C0.67 883 0.34 883 0 883 C0 591.61 0 300.22 0 0 Z M49 49 C49 276.7 49 504.4 49 739 C58.72313628 729.27686372 67.03590123 718.31793853 75.25 707.3125 C78.95348719 702.35994462 82.73759967 697.47994 86.56811523 692.62524414 C90.33645234 687.84908844 94.07955282 683.05386194 97.8125 678.25 C98.40119873 677.49251465 98.98989746 676.7350293 99.59643555 675.95458984 C100.79827112 674.40795067 102.00001217 672.86123805 103.20166016 671.31445312 C105.55240882 668.28905299 107.90462239 665.26479401 110.25708008 662.24072266 C111.41990314 660.74578077 112.58250049 659.25066329 113.74487305 657.75537109 C116.68243553 653.97680462 119.62324154 650.20084384 122.5703125 646.4296875 C128.15763298 639.27366057 133.70445234 632.09591632 139.125 624.8125 C143.51328437 618.91756163 148.03356973 613.14750165 152.64550781 607.42626953 C156.60645416 602.50936651 160.46801957 597.52652748 164.3046875 592.51171875 C167.51253458 588.32254772 170.75743301 584.1623148 174 580 C178.07912516 574.76259799 182.14806799 569.51807898 186.1875 564.25 C189.96197917 559.33397103 193.77728136 554.45238278 197.61181641 549.58325195 C206.27199017 538.58057217 214.84869155 527.51288864 223.375 516.40625 C227.1693886 511.47354482 230.99924157 506.56830958 234.82373047 501.65893555 C238.2764722 497.2243292 241.70996828 492.77619902 245.125 488.3125 C248.64743568 483.71952014 252.24260347 479.19379947 255.875 474.6875 C260.26193684 469.237085 264.54387981 463.71621528 268.75 458.125 C269.27577637 457.42850342 269.80155273 456.73200684 270.34326172 456.0144043 C272.84592726 453.26593958 272.84592726 453.26593958 274 450 C262.54010523 449.86752367 251.08018965 449.73702503 239.62024593 449.60884857 C234.29524087 449.54923197 228.97024431 449.48900877 223.64526367 449.42724609 C218.47750561 449.36733188 213.30972985 449.30921066 208.14193916 449.25218201 C206.19983807 449.23046391 204.25774332 449.20816812 202.31565666 449.18519592 C185.20842121 448.98353934 168.1107755 449 151 449 C151 317 151 185 151 49 C117.34 49 83.68 49 49 49 Z " fill="#FFFFFF" transform="translate(561,99)"/>
<path d="M0 0 C0.66 0 1.32 0 2 0 C2 291.39 2 582.78 2 883 C-64 883 -130 883 -198 883 C-198 882.67 -198 882.34 -198 882 C-132.33 882 -66.66 882 1 882 C0.67 592.26 0.34 302.52 0 4 C-4.29 9.61 -8.58 15.22 -13 21 C-18.6875 28.25 -18.6875 28.25 -21.38671875 31.671875 C-23.95049873 34.92813205 -26.4790098 38.21056098 -29 41.5 C-32.57851771 46.16610643 -36.18296522 50.81094823 -39.8125 55.4375 C-40.25658203 56.0046875 -40.70066406 56.571875 -41.15820312 57.15625 C-44.04260232 60.82572627 -46.9976728 64.42631431 -50 68 C-50.33 67.34 -50.66 66.68 -51 66 C-49.72954304 64.24972675 -48.45861894 62.49979256 -47.1875 60.75 C-46.47980469 59.77546875 -45.77210938 58.8009375 -45.04296875 57.796875 C-44.36878906 56.87390625 -43.69460938 55.9509375 -43 55 C-42.45988281 54.22140625 -41.91976562 53.4428125 -41.36328125 52.640625 C-40.91339844 52.09921875 -40.46351563 51.5578125 -40 51 C-39.34 51 -38.68 51 -38 51 C-37.77183594 50.48179687 -37.54367187 49.96359375 -37.30859375 49.4296875 C-35.521378 46.11133468 -33.30212451 43.14579871 -31.0625 40.125 C-30.57450928 39.46371094 -30.08651855 38.80242187 -29.58374023 38.12109375 C-23.48211944 29.89550962 -17.11581071 21.88471353 -10.7109375 13.89453125 C-10.16493896 13.21326172 -9.61894043 12.53199219 -9.05639648 11.83007812 C-8.00016444 10.51373043 -6.94245194 9.19856888 -5.88305664 7.88476562 C-3.8123817 5.30941381 -1.83437282 2.75155923 0 0 Z " fill="#F9B14E" transform="translate(517,98)"/>
<path d="M0 0 C0.66 0 1.32 0 2 0 C2 132.33 2 264.66 2 401 C1.67 401 1.34 401 1 401 C0.67 269.99 0.34 138.98 0 4 C-4.29 9.61 -8.58 15.22 -13 21 C-18.6875 28.25 -18.6875 28.25 -21.38671875 31.671875 C-23.95049873 34.92813205 -26.4790098 38.21056098 -29 41.5 C-32.57851771 46.16610643 -36.18296522 50.81094823 -39.8125 55.4375 C-40.25658203 56.0046875 -40.70066406 56.571875 -41.15820312 57.15625 C-44.04260232 60.82572627 -46.9976728 64.42631431 -50 68 C-50.33 67.34 -50.66 66.68 -51 66 C-49.72954304 64.24972675 -48.45861894 62.49979256 -47.1875 60.75 C-46.12595703 59.28820312 -46.12595703 59.28820312 -45.04296875 57.796875 C-44.36878906 56.87390625 -43.69460938 55.9509375 -43 55 C-42.18982422 53.83210938 -42.18982422 53.83210938 -41.36328125 52.640625 C-40.91339844 52.09921875 -40.46351563 51.5578125 -40 51 C-39.34 51 -38.68 51 -38 51 C-37.77183594 50.48179687 -37.54367187 49.96359375 -37.30859375 49.4296875 C-35.521378 46.11133468 -33.30212451 43.14579871 -31.0625 40.125 C-30.57450928 39.46371094 -30.08651855 38.80242187 -29.58374023 38.12109375 C-23.48211944 29.89550962 -17.11581071 21.88471353 -10.7109375 13.89453125 C-10.16493896 13.21326172 -9.61894043 12.53199219 -9.05639648 11.83007812 C-8.00016444 10.51373043 -6.94245194 9.19856888 -5.88305664 7.88476562 C-3.8123817 5.30941381 -1.83437282 2.75155923 0 0 Z " fill="#F8AA40" transform="translate(517,98)"/>
<path d="M0 0 C0.495 0.99 0.495 0.99 1 2 C-5.23731393 10.38173076 -11.51380565 18.72213552 -17.9934082 26.91845703 C-21.0265471 30.75581665 -24.02542058 34.61709364 -27 38.5 C-30.57841203 43.16618627 -34.18296635 47.81094967 -37.8125 52.4375 C-38.25658203 53.0046875 -38.70066406 53.571875 -39.15820312 54.15625 C-42.04260232 57.82572627 -44.9976728 61.42631431 -48 65 C-48.33 64.34 -48.66 63.68 -49 63 C-47.72954304 61.24972675 -46.45861894 59.49979256 -45.1875 57.75 C-44.12595703 56.28820312 -44.12595703 56.28820312 -43.04296875 54.796875 C-42.36878906 53.87390625 -41.69460938 52.9509375 -41 52 C-40.18982422 50.83210938 -40.18982422 50.83210938 -39.36328125 49.640625 C-38.91339844 49.09921875 -38.46351563 48.5578125 -38 48 C-37.34 48 -36.68 48 -36 48 C-35.77183594 47.48179687 -35.54367187 46.96359375 -35.30859375 46.4296875 C-33.521378 43.11133468 -31.30212451 40.14579871 -29.0625 37.125 C-28.57450928 36.46371094 -28.08651855 35.80242187 -27.58374023 35.12109375 C-22.52713024 28.30428682 -17.29396189 21.63327098 -12 15 C-11.45537109 14.31711914 -10.91074219 13.63423828 -10.34960938 12.93066406 C-6.90603824 8.6153775 -3.45546711 4.3057653 0 0 Z " fill="#F8A12F" transform="translate(515,101)"/>
<path d="M0 0 C0 3 0 3 -4 8 C27.68 8.33 59.36 8.66 92 9 C92 9.33 92 9.66 92 10 C59.33 10 26.66 10 -7 10 C-5.08905121 5.22262802 -3.66186662 3.37277189 0 0 Z " fill="#F8A83D" transform="translate(152,569)"/>
<path d="M0 0 C0.495 0.99 0.495 0.99 1 2 C-5.34730455 10.593945 -11.77138956 19.02745166 -18.6796875 27.1796875 C-21.69503898 30.84481169 -24.46698111 34.65661378 -27.2109375 38.52734375 C-29.06270732 41.08666754 -31.00873217 43.54819666 -33 46 C-33.66 45.67 -34.32 45.34 -35 45 C-23.65591553 29.74989378 -12.16383466 14.60947337 0 0 Z " fill="#F9A627" transform="translate(439,199)"/>
<path d="M0 0 C0 3.92090812 -1.20966644 4.7462982 -3.75 7.6875 C-7.72567285 12.41057422 -11.49979512 17.23641475 -15.1875 22.1875 C-15.67379883 22.84000732 -16.16009766 23.49251465 -16.66113281 24.16479492 C-17.61642641 25.44836977 -18.57102783 26.73246008 -19.52490234 28.01708984 C-22.00616525 31.35254455 -24.50333638 34.6760656 -27 38 C-27.66 37.67 -28.32 37.34 -29 37 C-26.38820405 32.15299263 -23.53094455 28.00415113 -19.875 23.875 C-15.07447095 18.34118099 -10.58747681 12.63635707 -6.19140625 6.77734375 C-4.25599002 4.32443654 -2.26228597 2.14891401 0 0 Z " fill="#FAAD41" transform="translate(397,254)"/>
<path d="M0 0 C0 4.20085067 -2.32477075 6.26698746 -4.875 9.375 C-5.88612918 10.6322398 -6.8965293 11.89006624 -7.90625 13.1484375 C-8.421875 13.78749023 -8.9375 14.42654297 -9.46875 15.08496094 C-11.81684297 18.02157465 -14.09632531 21.00940386 -16.375 24 C-19.49213494 28.08667859 -22.68984053 32.06991667 -26 36 C-26.495 34.515 -26.495 34.515 -27 33 C-25.55078125 30.828125 -25.55078125 30.828125 -23.3125 28.25 C-22.49007813 27.28191406 -21.66765625 26.31382812 -20.8203125 25.31640625 C-20.36817383 24.78805176 -19.91603516 24.25969727 -19.45019531 23.71533203 C-16.80475801 20.58623397 -14.24892074 17.38541896 -11.6875 14.1875 C-10.93303589 13.25502441 -10.93303589 13.25502441 -10.16333008 12.30371094 C-7.8948649 9.47881549 -5.73397258 6.65929952 -3.76953125 3.61328125 C-2 1 -2 1 0 0 Z " fill="#F8A432" transform="translate(323,349)"/>
<path d="M0 0 C0 3.43885645 -0.47405735 3.97715646 -2.52734375 6.58984375 C-3.0685083 7.2866626 -3.60967285 7.98348145 -4.16723633 8.70141602 C-4.75142334 9.43932373 -5.33561035 10.17723145 -5.9375 10.9375 C-7.12808111 12.4657744 -8.31818228 13.9944228 -9.5078125 15.5234375 C-10.09852539 16.27850586 -10.68923828 17.03357422 -11.29785156 17.81152344 C-13.67426836 20.86691647 -15.99878259 23.95950371 -18.3125 27.0625 C-19.03050781 28.02285156 -19.74851563 28.98320312 -20.48828125 29.97265625 C-20.98714844 30.64167969 -21.48601562 31.31070312 -22 32 C-22.66 31.67 -23.32 31.34 -24 31 C-21.33749417 26.05445763 -18.45415787 21.8944671 -14.75 17.6875 C-13.77752506 16.56216548 -12.80618221 15.4358517 -11.8359375 14.30859375 C-11.35866211 13.7554248 -10.88138672 13.20225586 -10.38964844 12.63232422 C-7.66409416 9.4308035 -5.06763308 6.12639288 -2.4609375 2.828125 C-1 1 -1 1 0 0 Z " fill="#F9A730" transform="translate(221,480)"/>
<path d="M0 0 C0 3.58685305 -0.69680858 4.24515839 -2.88671875 6.984375 C-3.8003418 8.14066406 -3.8003418 8.14066406 -4.73242188 9.3203125 C-5.37759766 10.12210937 -6.02277344 10.92390625 -6.6875 11.75 C-7.94270822 13.32708963 -9.19663439 14.90520059 -10.44921875 16.484375 C-11.05427246 17.24298828 -11.65932617 18.00160156 -12.28271484 18.78320312 C-13.8748344 20.83842712 -15.36243786 22.93445076 -16.83203125 25.078125 C-17.54746094 26.04234375 -18.26289063 27.0065625 -19 28 C-19.66 28 -20.32 28 -21 28 C-21.66 29.32 -22.32 30.64 -23 32 C-23.33 31.34 -23.66 30.68 -24 30 C-16.55716932 19.51514044 -8.55279176 9.59782741 0 0 Z " fill="#F9A82E" transform="translate(295,385)"/>
<path d="M0 0 C0 3.9913832 -1.92092202 5.83569195 -4.3125 8.8125 C-4.75384277 9.37348389 -5.19518555 9.93446777 -5.64990234 10.51245117 C-6.5960795 11.71382753 -7.54541429 12.91272234 -8.49755859 14.109375 C-10.0445267 16.056031 -11.58026333 18.01109331 -13.11328125 19.96875 C-15.7359986 23.3174093 -18.36613678 26.6601012 -21 30 C-21.33 29.01 -21.66 28.02 -22 27 C-20.24432071 24.49274566 -18.468566 22.20526813 -16.5 19.875 C-15.38622364 18.52384548 -14.2729405 17.17228422 -13.16015625 15.8203125 C-12.34442139 14.83853027 -12.34442139 14.83853027 -11.51220703 13.83691406 C-9.06381174 10.86278972 -6.73609852 7.79854157 -4.40234375 4.734375 C-3.02882272 3.03564705 -1.57372798 1.51302037 0 0 Z " fill="#F89D27" transform="translate(270,417)"/>
<path d="M0 0 C0.66 0.33 1.32 0.66 2 1 C-13.06326022 21.61990132 -13.06326022 21.61990132 -20 30 C-20.33 29.01 -20.66 28.02 -21 27 C-20.04711914 25.36523438 -20.04711914 25.36523438 -18.53515625 23.59375 C-17.98561279 22.93697266 -17.43606934 22.28019531 -16.86987305 21.60351562 C-16.27343994 20.90935547 -15.67700684 20.21519531 -15.0625 19.5 C-13.85976791 18.06434961 -12.65925058 16.62684092 -11.4609375 15.1875 C-10.87022461 14.47980469 -10.27951172 13.77210938 -9.67089844 13.04296875 C-6.23987499 8.84793599 -3.11082974 4.43598682 0 0 Z " fill="#F9A930" transform="translate(175,538)"/>
<path d="M0 0 C0 3.63129359 -0.79256772 4.38911405 -2.9921875 7.1953125 C-3.61480469 7.99324219 -4.23742187 8.79117188 -4.87890625 9.61328125 C-5.53761719 10.44214844 -6.19632812 11.27101562 -6.875 12.125 C-7.52597656 12.96160156 -8.17695313 13.79820312 -8.84765625 14.66015625 C-13.72183745 20.86091872 -13.72183745 20.86091872 -16 22 C-15.45702133 17.72926392 -12.83303244 14.8286176 -10.25 11.5625 C-9.81945312 11.00240234 -9.38890625 10.44230469 -8.9453125 9.86523438 C-6.17827924 6.31531296 -3.24307501 3.12058477 0 0 Z " fill="#F7A731" transform="translate(462,170)"/>
<path d="M0 0 C0.66 0 1.32 0 2 0 C0.51049288 3.30413508 -1.39376194 5.88904945 -3.6875 8.6875 C-7.52479722 13.40870846 -11.27941675 18.18649543 -15 23 C-15 19.34603334 -14.13248403 18.46710757 -11.97265625 15.5859375 C-11.34552734 14.74289062 -10.71839844 13.89984375 -10.07226562 13.03125 C-9.07743164 11.71640625 -9.07743164 11.71640625 -8.0625 10.375 C-7.40314453 9.49070312 -6.74378906 8.60640625 -6.06445312 7.6953125 C-1.23135923 1.23135923 -1.23135923 1.23135923 0 0 Z " fill="#FAAF3D" transform="translate(353,309)"/>
<path d="M0 0 C0.33 0.66 0.66 1.32 1 2 C-0.95182717 4.65068998 -2.91253256 7.29468057 -4.875 9.9375 C-5.43058594 10.69224609 -5.98617188 11.44699219 -6.55859375 12.22460938 C-7.36103516 13.30258789 -7.36103516 13.30258789 -8.1796875 14.40234375 C-8.67194824 15.06741943 -9.16420898 15.73249512 -9.67138672 16.41772461 C-11 18 -11 18 -13 19 C-12.40444838 15.92256269 -11.48873735 14.01870982 -9.53125 11.58203125 C-9.04269531 10.96779297 -8.55414063 10.35355469 -8.05078125 9.72070312 C-7.53902344 9.09099609 -7.02726562 8.46128906 -6.5 7.8125 C-5.73236328 6.85053711 -5.73236328 6.85053711 -4.94921875 5.86914062 C-1.25979663 1.25979663 -1.25979663 1.25979663 0 0 Z " fill="#FBA93D" transform="translate(439,199)"/>
<path d="M0 0 C0.63061523 1.79785156 0.63061523 1.79785156 1 4 C-0.56735033 6.42573098 -2.10930173 8.54062361 -3.9375 10.75 C-4.65969727 11.65298828 -4.65969727 11.65298828 -5.39648438 12.57421875 C-6.58635374 14.05861023 -7.79173374 15.53054438 -9 17 C-9.66 16.67 -10.32 16.34 -11 16 C-7.89842047 10.16903048 -4.14443819 5.13398101 0 0 Z " fill="#F89E2D" transform="translate(379,275)"/>
<path d="M0 0 C0.66 0.33 1.32 0.66 2 1 C0.21568681 3.33930023 -1.57684069 5.6713837 -3.375 8 C-3.88289063 8.66773438 -4.39078125 9.33546875 -4.9140625 10.0234375 C-5.40390625 10.65507812 -5.89375 11.28671875 -6.3984375 11.9375 C-7.07398682 12.81728516 -7.07398682 12.81728516 -7.76318359 13.71484375 C-8.17133301 14.13894531 -8.57948242 14.56304687 -9 15 C-9.66 15 -10.32 15 -11 15 C-9.44476633 11.50683117 -7.34563239 8.77131239 -4.9375 5.8125 C-4.22464844 4.93207031 -3.51179688 4.05164063 -2.77734375 3.14453125 C-1.88495567 2.06778168 -0.98887464 0.98887464 0 0 Z " fill="#F9AB2F" transform="translate(439,279)"/>
<path d="M0 0 C0 4.20547571 -2.36738124 6.16710361 -5 9.1875 C-5.47695313 9.74630859 -5.95390625 10.30511719 -6.4453125 10.88085938 C-7.62366206 12.25952836 -8.81098952 13.63051472 -10 15 C-10.33 14.34 -10.66 13.68 -11 13 C-9.73549459 11.20386168 -8.46316512 9.41322966 -7.1875 7.625 C-6.47980469 6.62726563 -5.77210938 5.62953125 -5.04296875 4.6015625 C-3 2 -3 2 0 0 Z " fill="#F7A734" transform="translate(477,151)"/>
<path d="M0 0 C0 3.37729153 -0.37411207 3.83838882 -2.40625 6.35546875 C-2.90253906 6.97744141 -3.39882813 7.59941406 -3.91015625 8.24023438 C-4.43480469 8.88283203 -4.95945312 9.52542969 -5.5 10.1875 C-6.28697266 11.16879883 -6.28697266 11.16879883 -7.08984375 12.16992188 C-8.38675581 13.7851669 -9.69254664 15.39327566 -11 17 C-11.33 16.01 -11.66 15.02 -12 14 C-11.01196289 12.37426758 -11.01196289 12.37426758 -9.47265625 10.64453125 C-8.65571289 9.71157227 -8.65571289 9.71157227 -7.82226562 8.75976562 C-7.24154297 8.11716797 -6.66082031 7.47457031 -6.0625 6.8125 C-5.1972168 5.83120117 -5.1972168 5.83120117 -4.31445312 4.83007812 C-2.88535638 3.21200991 -1.44381657 1.60494735 0 0 Z " fill="#F9B43D" transform="translate(295,385)"/>
<path d="M0 0 C0.33 0.66 0.66 1.32 1 2 C-0.59856666 4.12942275 -2.20347458 6.25350334 -3.8125 8.375 C-4.26431641 8.97828125 -4.71613281 9.5815625 -5.18164062 10.203125 C-7.31213278 13.00231177 -9.04813965 15.0320931 -12 17 C-10.25477062 12.94785821 -7.5771843 9.69396039 -4.875 6.25 C-4.40707031 5.64800781 -3.93914062 5.04601562 -3.45703125 4.42578125 C-2.30774993 2.94813384 -1.15428765 1.47373995 0 0 Z " fill="#FAB349" transform="translate(385,348)"/>
<path d="M0 0 C0.33 0.99 0.66 1.98 1 3 C-0.74294474 5.3681635 -2.48379005 7.50699905 -4.4375 9.6875 C-4.96666016 10.29400391 -5.49582031 10.90050781 -6.04101562 11.52539062 C-7.35161048 13.02490005 -8.67466418 14.51350334 -10 16 C-10 11.7349984 -7.55526586 9.49967621 -5 6.3125 C-4.52304687 5.70599609 -4.04609375 5.09949219 -3.5546875 4.47460938 C-2.37623606 2.97797604 -1.18894812 1.48830827 0 0 Z " fill="#F8B546" transform="translate(458,254)"/>
<path d="M0 0 C0.66 0 1.32 0 2 0 C0.50923566 3.2826932 -1.38620321 5.93077441 -3.625 8.75 C-4.57246094 9.94882812 -4.57246094 9.94882812 -5.5390625 11.171875 C-6.02117187 11.77515625 -6.50328125 12.3784375 -7 13 C-7.33 12.01 -7.66 11.02 -8 10 C-6.41796875 7.51953125 -6.41796875 7.51953125 -4.1875 4.8125 C-3.45917969 3.91144531 -2.73085937 3.01039063 -1.98046875 2.08203125 C-1.32691406 1.39496094 -0.67335937 0.70789063 0 0 Z " fill="#F9A32D" transform="translate(186,524)"/>
<path d="M0 0 C0.66 0 1.32 0 2 0 C0.49087042 4.98012761 -2.55661849 8.24259942 -6 12 C-6.33 11.01 -6.66 10.02 -7 9 C-5.63671875 6.73828125 -5.63671875 6.73828125 -3.6875 4.3125 C-3.05199219 3.50425781 -2.41648437 2.69601562 -1.76171875 1.86328125 C-1.18035156 1.24839844 -0.59898437 0.63351562 0 0 Z " fill="#F5A327" transform="translate(363,296)"/>
<path d="M0 0 C0.33 0.99 0.66 1.98 1 3 C-0.58203125 5.48046875 -0.58203125 5.48046875 -2.8125 8.1875 C-3.90498047 9.53908203 -3.90498047 9.53908203 -5.01953125 10.91796875 C-5.99986328 11.94857422 -5.99986328 11.94857422 -7 13 C-7.66 13 -8.32 13 -9 13 C-7.50923566 9.7173068 -5.61379679 7.06922559 -3.375 4.25 C-2.74335938 3.45078125 -2.11171875 2.6515625 -1.4609375 1.828125 C-0.97882813 1.22484375 -0.49671875 0.6215625 0 0 Z " fill="#F7A53B" transform="translate(287,474)"/>
<path d="M0 0 C0.66 0.33 1.32 0.66 2 1 C1.09373216 2.2989839 0.17450463 3.58893167 -0.75 4.875 C-1.51570313 5.95394531 -1.51570313 5.95394531 -2.296875 7.0546875 C-4.07503547 9.08570565 -5.52701607 9.97855012 -8 11 C-6.63629701 8.00779732 -5.05091917 5.70973471 -2.875 3.25 C-2.33617187 2.63640625 -1.79734375 2.0228125 -1.2421875 1.390625 C-0.62730469 0.70226562 -0.62730469 0.70226562 0 0 Z " fill="#F88E1D" transform="translate(403,245)"/>
<path d="M0 0 C0.66 0.33 1.32 0.66 2 1 C-0.97 4.63 -3.94 8.26 -7 12 C-7.33 11.34 -7.66 10.68 -8 10 C-6.85500893 8.52018126 -5.708983 7.04116318 -4.5625 5.5625 C-3.60537109 4.32693359 -3.60537109 4.32693359 -2.62890625 3.06640625 C-1 1 -1 1 0 0 Z " fill="#F79B29" transform="translate(241,454)"/>
<path d="M0 0 C0.33 0.99 0.66 1.98 1 3 C-0.36328125 5.26171875 -0.36328125 5.26171875 -2.3125 7.6875 C-2.94800781 8.49574219 -3.58351563 9.30398438 -4.23828125 10.13671875 C-4.81964844 10.75160156 -5.40101563 11.36648438 -6 12 C-6.66 12 -7.32 12 -8 12 C-6.49087042 7.01987239 -3.44338151 3.75740058 0 0 Z " fill="#F9AB3A" transform="translate(360,380)"/>
<path d="M0 0 C0 3.58912412 -0.66436554 4.10857029 -3 6.6875 C-3.556875 7.31011719 -4.11375 7.93273437 -4.6875 8.57421875 C-5.120625 9.04472656 -5.55375 9.51523437 -6 10 C-6.33 9.01 -6.66 8.02 -7 7 C-2.88888889 1.44444444 -2.88888889 1.44444444 0 0 Z " fill="#F3AC36" transform="translate(303,375)"/>
<path d="M0 0 C0.33 0.99 0.66 1.98 1 3 C-1.97 6.3 -4.94 9.6 -8 13 C-8 9.00717059 -6.52191924 7.84668408 -4 4.8125 C-3.2575 3.91144531 -2.515 3.01039063 -1.75 2.08203125 C-1.1725 1.39496094 -0.595 0.70789063 0 0 Z " fill="#FAA846" transform="translate(409,317)"/>
<path d="M0 0 C0 3.60573896 -0.81707462 4.41336566 -3 7.1875 C-3.556875 7.90292969 -4.11375 8.61835937 -4.6875 9.35546875 C-5.120625 9.89816406 -5.55375 10.44085937 -6 11 C-6.33 10.01 -6.66 9.02 -7 8 C-5.6875 5.8125 -5.6875 5.8125 -4 4 C-3.34 4 -2.68 4 -2 4 C-1.34 2.68 -0.68 1.36 0 0 Z " fill="#F7AB36" transform="translate(196,512)"/>
<path d="M0 0 C0.66 0.33 1.32 0.66 2 1 C-0.64 4.3 -3.28 7.6 -6 11 C-6.33 10.01 -6.66 9.02 -7 8 C-5.56640625 5.95703125 -5.56640625 5.95703125 -3.5625 3.8125 C-2.90378906 3.09707031 -2.24507812 2.38164062 -1.56640625 1.64453125 C-1.04949219 1.10183594 -0.53257812 0.55914062 0 0 Z " fill="#F5A233" transform="translate(255,436)"/>
<path d="M0 0 C0.66 0 1.32 0 2 0 C0.64978174 4.41889613 -1.26115668 6.34345343 -5 9 C-3.7580393 5.56072421 -2.44259716 2.74792181 0 0 Z " fill="#F9A32F" transform="translate(227,471)"/>
<path d="M0 0 C0 4.38968456 -2.12805101 5.76905739 -5 9 C-5.66 8.67 -6.32 8.34 -7 8 C-6.21366078 6.85050412 -5.42073742 5.70551011 -4.625 4.5625 C-4.18414062 3.92441406 -3.74328125 3.28632812 -3.2890625 2.62890625 C-2 1 -2 1 0 0 Z " fill="#FAA62C" transform="translate(152,569)"/>
<path d="M0 0 C0.66 0.33 1.32 0.66 2 1 C0.02 3.31 -1.96 5.62 -4 8 C-4.33 7.34 -4.66 6.68 -5 6 C-3.35 4.02 -1.7 2.04 0 0 Z " fill="#F8A632" transform="translate(335,333)"/>
<path d="M0 0 C0.66 0.66 1.32 1.32 2 2 C0.35 3.98 -1.3 5.96 -3 8 C-3.33 7.01 -3.66 6.02 -4 5 C-2.0625 2.3125 -2.0625 2.3125 0 0 Z " fill="#F7AB2F" transform="translate(430,210)"/>
</svg>
