<svg xmlns="http://www.w3.org/2000/svg" width="1080" height="1080"><path fill="#E5E5E5" d="M0 0h1080v1080H0z"/><path fill="#FC8B09" d="m180.563 107.75 2.253-.016c4.814.586 6.844 2.922 9.77 6.63 1.497 1.732 3.083 3.12 4.851 4.573 3.062 2.533 5.507 5.282 8.028 8.34 2.092 2.348 4.462 4.261 6.883 6.258 2.513 2.228 4.505 4.888 6.652 7.465q1.723 1.53 3.5 3c3.264 2.701 5.785 5.742 8.5 9q1.693 1.499 3.438 2.938A47.5 47.5 0 0 1 241 162.5c2.55 3.088 5.328 5.613 8.406 8.164 1.989 1.667 3.79 3.472 5.594 5.336l2.309 2.309q2.586 2.586 5.156 5.191c5.226 5.34 5.226 5.34 10.848 10.25C276 196 276 196 278.438 198.938c2.403 2.872 4.83 5.122 7.718 7.472 2.41 2.077 4.608 4.328 6.844 6.59q1.467 1.453 2.938 2.902l3.062 3.036 1.54 1.513c2.502 2.487 4.88 5 7.112 7.733 1.894 2.271 3.64 4.083 5.91 5.941 3.802 3.247 7.386 6.673 10.938 10.188l1.639 1.6c1.327 1.323 2.6 2.701 3.861 4.087v2l1.797.816c3.69 1.983 6.211 4.486 8.203 8.184.49 3.726.365 7.267 0 11h-3l-1 3c-3.578 2.684-7.71 2.268-11.981 2.227h-2.426c-2.64 0-5.28-.016-7.921-.032l-5.498-.008c-4.82-.008-9.64-.028-14.46-.05-4.92-.02-9.84-.03-14.76-.04-9.652-.02-19.303-.055-28.954-.097a511563 511563 0 0 0 .372 150.311l.009 3.195q.065 25.57.124 51.142.06 26.257.132 52.515.044 16.189.078 32.378.025 11.116.058 22.234.019 6.403.03 12.808.01 5.88.032 11.762.006 2.11.008 4.22c.008 10.18.475 20.283 1.157 30.435h2l2 11h2l.594 1.652c3.67 9.254 9.943 16.176 18.406 21.348 3.258 1.311 3.258 1.311 6 2v2l12 2v2h22v-2q2.625-.506 5.25-1l2.953-.562C328 686 328 686 332 686v-2l5-1v-2c5.75-3 5.75-3 8-3l2-4h2l.75-2.062c1.492-3.507 3.318-6.654 5.25-9.938h2l1-7h2c2.06-13.824 2.306-27.462 2.319-41.42l.03-7.249q.036-8.754.052-17.51c.013-6.8.038-13.602.064-20.403q.067-18.187.113-36.376.045-17.65.105-35.3l.007-2.205.037-10.948q.154-45.295.273-90.589h2l.75-2.437C367 388 367 388 369.125 387.188L371 387v-2h117v2l2.438.688L493 389c.813 2.625.813 2.625 1 5h2a222797 222797 0 0 1 .055 101.398v2.155q.008 17.248.022 34.496.014 17.715.017 35.429 0 9.943.012 19.886.01 9.367.007 18.736 0 3.429.006 6.858c.036 22.178.036 22.178-1.119 33.042h-2l.105 1.695c.263 7.763-1.34 14.781-3.105 22.305-.574 2.623-1.13 5.249-1.687 7.875L487 684h-2l-.437 3.813c-.3 2.614-.721 4.661-1.563 7.187h-2l-.262 2.965c-.661 4.605-2.52 8.45-4.55 12.597l-1.042 2.21c-2.077 4.33-4.427 8.258-7.146 12.228-.716 1.646-1.403 3.307-2 5h-2l-.781 1.652c-4.443 8.559-10.331 15.904-16.918 22.891a100 100 0 0 0-5.238 6.082c-4.052 4.802-9.167 8.483-14.063 12.375a590 590 0 0 0-3.562 3.063C421 778 421 778 419 778v2c-1.847 1.223-3.755 2.354-5.687 3.438l-3.2 1.808L407 787l-2.75 1.68c-2.126 1.247-3.842 1.874-6.25 2.32v2c-7.587 3.567-15.186 6.965-23 10q-2.658 1.06-5.312 2.125L365 807l-2.398 1.078c-3.023 1.071-5.72 1.336-8.914 1.547l-3.239.227L348 810v2q-3.343.475-6.687.938l-3.762.527c-11.367 1.415-22.735 1.772-34.176 1.785l-2.286.005c-35.415.005-35.415.005-48.089-5.255q-2.64-.792-5.3-1.508l-2.96-.8-3.053-.817-3.11-.84Q234.788 805.014 231 804v-2l-2.937-.25C219.176 800.453 210.9 794.999 203 791l-6-3v-2l-2.223-.848C182.422 780.026 169.161 769.76 160 760v-2l-1.75-.73c-2.68-1.512-4.246-3.254-6.25-5.582l-2.094-2.43L148 747l-2.5-2.937C144 742 144 742 144 740l-3-1c-1.187-3.062-1.187-3.062-2-6h-2l-1-4h-2c-6.488-11.078-11.825-21.853-16-34-.765-2.065-1.542-4.124-2.32-6.184-2.9-7.742-4.844-14.469-4.68-22.816h-2c-1.42-11.071-2.296-21.832-2-33h-2V277H27c-3-1-3-1-4.168-2.785-.887-2.363-1.131-4.136-1.145-6.652l-.05-2.247c.765-4.877 4.045-8.244 7.448-11.612l2.479-2.469 2.67-2.63 4.18-4.155a3483 3483 0 0 1 5.854-5.797q5.103-5.047 10.193-10.105 2.706-2.687 5.42-5.366c3.572-3.545 7.09-7.078 10.352-10.913 4.951-5.762 10.42-11.032 15.806-16.383q3.05-3.031 6.093-6.07 6.462-6.442 12.93-12.879 7.508-7.47 15.006-14.95 2.987-2.975 5.979-5.946l3.692-3.682 1.658-1.642a156 156 0 0 0 9.242-10.122A74 74 0 0 1 147 134h2l.725-1.707c2.695-4.848 7.186-8.53 11.088-12.418l2.736-2.785 2.658-2.66 2.421-2.43c3.709-3.127 7.123-4.283 11.935-4.25"/><path fill="#FC8A08" d="m587.717 232.846 2.94-.026 3.22-.013 3.397-.025q5.574-.036 11.148-.055l3.843-.017c5.33-.02 10.662-.04 15.992-.051q11.445-.023 22.889-.107c6.018-.043 12.035-.059 18.054-.065a1139 1139 0 0 0 7.669-.046c3.579-.032 7.156-.032 10.735-.024l3.197-.05c6.72.057 10.183 1.077 15.199 5.633 1.142 2.283 1.153 3.635 1.205 6.174l.06 2.609.051 2.819.063 2.883q.097 4.57.184 9.14l.13 6.188q.161 7.593.307 15.187l5-1v-2a152 152 0 0 1 6.75-5.437l1.922-1.487a633 633 0 0 1 3.693-2.83 260 260 0 0 0 3.963-3.094C731 266 731 266 733 266v-2a700 700 0 0 1 5.188-2.937l2.917-1.653c2.702-1.316 4.939-1.983 7.895-2.41v-2c2.906-1.257 4.796-2 8-2v-2l9-2v-2q2.841-.76 5.688-1.5l3.199-.844c2.824-.595 5.241-.784 8.113-.656v-2l2.004-.26q4.467-.584 8.934-1.177l3.154-.409 2.998-.4 2.777-.365c2.11-.176 2.11-.176 3.133-1.389a158 158 0 0 1 7.098-.098l2.148.005c2.272.005 4.544.018 6.817.03q2.306.008 4.61.014 5.664.017 11.327.049v2l1.766-.07c6.935-.153 13.433.761 20.234 2.07v2l2.195.148c5.22.404 9.903.865 14.805 2.852v2l3.25.438c2.667.4 5.164.838 7.75 1.562v2l6 2v2l2.25.313c3.002.75 4.345 1.792 6.75 3.687a200 200 0 0 0 6 3v2l1.625.75c4.936 2.598 8.584 5.267 12.031 9.688 1.465 1.702 3.035 3.028 4.782 4.437 3.22 2.677 5.588 5.574 8.015 8.973 2.236 3.11 4.642 6.081 7.031 9.074 2.293 3.143 3.516 5.141 3.516 9.078h2c9.149 15.957 9.149 15.957 10 25h2q.76 3.31 1.5 6.625l.844 3.727c.597 3.32.78 6.287.656 9.648h2c.896 6.048 1.113 11.89 1 18h2v455h79c3.551 1.184 4.754 2.005 7 5 1.157 4.155 1.557 7.67-.125 11.688L1052 845l-2.187 2.875c-1.988 2.334-4.123 4.313-6.459 6.296-4.476 3.882-8.661 8.009-12.834 12.212l-2.352 2.355q-3.68 3.69-7.355 7.387l-4.967 4.98q-4.553 4.565-9.1 9.134l-1.964 1.965a252 252 0 0 0-3.324 3.41A95 95 0 0 1 998 899h-2l-.75 1.75c-1.747 3.145-4.067 5.244-6.797 7.566-5.545 4.728-10.64 9.828-15.704 15.06l-1.772 1.808-1.592 1.642C968 928 968 928 966 928l-2 4h-2l-.625 1.688c-1.886 3.172-4.53 4.99-7.375 7.312a487 487 0 0 0-3 4h-2l-.625 1.688c-1.518 2.552-3.335 3.992-5.652 5.808-2.715 2.37-4.925 5.15-7.207 7.93L934 962h-2l-.625 1.688c-1.535 2.58-3.402 4.054-5.738 5.898-1.733 1.497-3.122 3.083-4.574 4.852-2.553 3.08-5.315 5.605-8.395 8.148-1.544 1.309-2.987 2.733-4.418 4.164-2.898 2.898-4.503 4.167-8.625 4.625-4.293-.444-5.573-1.403-8.625-4.375l-2.437-2.312a118 118 0 0 1-5.438-6.125c-2.581-3.066-5.393-5.557-8.477-8.102C873 969 873 969 870.563 966.063c-2.655-3.174-5.505-5.666-8.649-8.333-1.719-1.553-3.117-3.097-4.539-4.917-2.266-2.952-2.266-2.952-5.5-4.875C849 946 849 946 847.625 943.688c-2.058-3.404-4.68-5.506-7.7-8.055-2.093-1.775-4.019-3.659-5.925-5.633l-1.937-1.875C830 926 830 926 827.75 923.188c-2.627-3.22-5.683-5.78-8.84-8.465-2.593-2.34-4.682-5.038-6.91-7.723-1.713-1.518-3.473-2.966-5.238-4.422-1.828-1.638-3.335-3.366-4.887-5.265-1.78-2.163-2.935-3.35-5.375-4.813-4.599-2.76-7.58-7.339-10.875-11.5-2.7-3.086-5.583-5.617-8.703-8.262-1.76-1.591-3.206-3.191-4.672-5.05-1.953-2.708-1.953-2.708-4.18-3.618-2.468-1.276-3.696-2.735-5.445-4.882-2.98-3.528-6.034-6.3-9.625-9.188-6.777-6.469-6.777-6.469-7.336-10.305-.106-6.973-.106-6.973 2.211-10.757C768.117 810.482 802.607 826 830 826l-1-433h-2l-.48-2.527c-2.106-10.157-5.276-17.49-12.383-25.063C813 364 813 364 813 362l-1.687-.75C809 360 809 360 806.719 358.145 789.69 344.713 769.689 344.673 749 347c-2.669.318-5.334.654-8 1v2l-8 2v2a149 149 0 0 1-4.277 2.871c-5.134 3.365-8.338 6.432-10.723 12.129h-2l-2 7h-2l-2 12h-2l.001 3.041q.012 36.631-.081 73.262c-.03 11.81-.048 23.619-.04 35.429q.012 15.44-.046 30.879c-.02 5.45-.03 10.9-.014 16.35q.02 7.697-.035 15.393-.013 2.823.008 5.646c.016 2.573-.004 5.144-.034 7.717l.042 2.25c-.116 5.206-1.677 8.074-5.175 11.708-2.27 1.85-3.84 2.196-6.756 2.187l-2.986.042-3.226-.062-3.436.018c-3.743.01-7.483-.03-11.226-.07q-3.904-.01-7.808-.01c-5.451-.005-10.902-.037-16.354-.087a2166 2166 0 0 0-18.888-.083q-9.1-.006-18.2-.053-3.866-.017-7.733-.026c-3.6-.011-7.2-.042-10.8-.08h-3.233c-9.151-.133-9.151-.133-12.98-3.451-3.005-3.27-3.374-5.46-3.372-9.856l-.02-3.65.025-4.014-.01-4.261c-.01-3.908.001-7.815.014-11.722.011-4.212.005-8.424 0-12.636-.005-8.253.005-16.506.02-24.759.018-9.604.02-19.209.02-28.814q.005-25.698.042-51.398a42211 42211 0 0 0 .043-59.21v-3.085l.001-3.077q.007-23.758.028-47.515l.01-17.24q.006-13.672.027-27.343.011-6.25.012-12.5.002-5.715.016-11.43.003-2.072.002-4.146c-.001-1.871.005-3.742.01-5.614l.004-3.156c.147-2.962.565-4.909 2.503-7.199 2.904-2.458 5.703-2.505 9.342-2.529"/><path fill="#80472B" d="M22 264h2l.25 2.813c.464 3.162.464 3.162 2.322 4.86 3.312 1.81 6.346 1.759 10.026 1.744l2.303.026c2.506.025 5.011.029 7.517.034q2.61.021 5.222.047c4.578.042 9.156.067 13.734.087 7.34.036 14.678.097 22.017.159 2.568.019 5.137.03 7.706.041l4.693.031 2.18.003c4.917.042 4.917.042 6.03 1.155.1 1.907.127 3.817.127 5.727l.01 3.794-.006 4.223.007 4.445q.006 4.853.005 9.705-.002 7.895.01 15.791.011 11.473.016 22.946c.005 12.114.022 24.228.041 36.342l.019 12.44.005 3.142a142067 142067 0 0 1 .053 38.719q.031 26.16.04 52.32.013 26.895.068 53.79.034 16.56.026 33.123-.004 11.393.03 22.787c.013 4.366.02 8.732.008 13.098-.069 29.213 1.59 57.081 12.256 84.683l.789 2.042.77 1.98c.676 1.772 1.31 3.56 1.94 5.348 2.58 7.207 5.85 13.307 10.016 19.68 1.596 2.592 2.651 5.061 3.77 7.875a281 281 0 0 0 5 5 146 146 0 0 1 2.625 3.563c6.985 9.492 15.408 17.83 24.375 25.437l2.566 2.191c4.38 3.631 8.513 6.523 13.684 8.88 2.772 1.472 4.673 3.614 6.75 5.929 2.195 2.403 4.32 3.87 7.203 5.375l2.473 1.297L205.25 788l2.527 1.328c6.596 3.438 12.918 6.54 20.223 8.172 3.404.804 6.24 1.61 9.438 3.063 5.34 2.154 10.874 2.71 16.562 3.437v2l1.758.148 2.367.227c.766.07 1.531.14 2.32.21 2.555.415 2.555.415 5.27 1.384 26.633 8.36 68.17 6.134 94.285-2.969a406 406 0 0 1 5.313-1.687l2.425-.762C370 802 370 802 374 802v-2l3.176-1.242 4.137-1.633 2.091-.816c3.106-1.23 5.806-2.449 8.596-4.309h3v-2l2.875-1.125c4.192-1.776 7.953-4.14 11.793-6.57 2.156-1.207 3.92-1.85 6.332-2.305-4.808 5.428-10.815 9.501-18 11v2c-7.587 3.567-15.186 6.965-23 10q-2.658 1.06-5.312 2.125L365 807l-2.398 1.078c-3.023 1.071-5.72 1.336-8.914 1.547l-3.239.227L348 810v2q-3.343.475-6.687.938l-3.762.527c-11.367 1.415-22.735 1.772-34.176 1.785l-2.286.005c-35.415.005-35.415.005-48.089-5.255q-2.64-.792-5.3-1.508l-2.96-.8-3.053-.817-3.11-.84Q234.788 805.014 231 804v-2l-2.937-.25C219.176 800.453 210.9 794.999 203 791l-6-3v-2l-2.223-.848C182.422 780.026 169.161 769.76 160 760v-2l-1.75-.73c-2.68-1.512-4.246-3.254-6.25-5.582l-2.094-2.43L148 747l-2.5-2.937C144 742 144 742 144 740l-3-1c-1.187-3.062-1.187-3.062-2-6h-2l-1-4h-2c-6.488-11.078-11.825-21.853-16-34-.765-2.065-1.542-4.124-2.32-6.184-2.9-7.742-4.844-14.469-4.68-22.816h-2c-1.42-11.071-2.296-21.832-2-33h-2V277H27c-3-1-3-1-4.187-2.562-1.183-3.55-.937-6.705-.813-10.438"/><path fill="#763312" d="M775 342c1.674.09 1.674.09 3.383.184 9.602.955 17.35 5.153 25.617 9.816l1.944 1.075c11.213 6.249 11.213 6.249 13.056 11.925a157 157 0 0 0 2.813 4.438c9.67 15.96 10.495 33.183 10.428 51.304q0 2.636.005 5.27c.004 4.792-.004 9.583-.014 14.375-.009 5.18-.006 10.36-.004 15.54q.001 13.446-.017 26.891c-.016 12.96-.021 25.919-.024 38.878q-.007 31.543-.036 63.085-.028 30.631-.041 61.263l-.002 3.818-.007 18.961Q832.068 747.412 832 826h-2l-1-433h-2l-.48-2.527c-2.106-10.157-5.276-17.49-12.383-25.063C813 364 813 364 813 362l-1.687-.75C809 360 809 360 806.719 358.145 789.69 344.713 769.689 344.673 749 347c-2.669.318-5.334.654-8 1v2l-8 2v2a149 149 0 0 1-4.277 2.871c-5.134 3.365-8.338 6.432-10.723 12.129h-2l-2 7h-1c-.585-3.26-.398-5.354 1.348-8.191 3.545-4.605 7.347-8.905 11.652-12.809h2v-2c11.964-10.736 31.751-12.09 47-11"/><path fill="#4E2311" d="M108 639h1l.304 2.44q.58 4.593 1.185 9.181c.253 1.946.496 3.893.738 5.84 1.647 12.418 4.984 23.959 9.488 35.614l.789 2.042.77 1.98c.676 1.772 1.31 3.56 1.94 5.348 2.58 7.207 5.85 13.307 10.016 19.68 1.596 2.592 2.651 5.061 3.77 7.875a281 281 0 0 0 5 5 146 146 0 0 1 2.625 3.563c6.985 9.492 15.408 17.83 24.375 25.437l2.566 2.191c4.38 3.631 8.513 6.523 13.684 8.88 2.772 1.472 4.673 3.614 6.75 5.929 2.195 2.403 4.32 3.87 7.203 5.375l2.473 1.297L205.25 788l2.527 1.328c6.596 3.438 12.918 6.54 20.223 8.172 3.404.804 6.24 1.61 9.438 3.063 5.34 2.154 10.874 2.71 16.562 3.437v2l1.758.148 2.367.227 2.32.21c2.555.415 2.555.415 5.27 1.384 26.633 8.36 68.17 6.134 94.285-2.969a406 406 0 0 1 5.313-1.687l2.425-.762C370 802 370 802 374 802v-2l3.176-1.242 4.137-1.633 2.091-.816c3.106-1.23 5.806-2.449 8.596-4.309h3v-2l2.875-1.125c4.192-1.776 7.953-4.14 11.793-6.57 2.156-1.207 3.92-1.85 6.332-2.305-4.808 5.428-10.815 9.501-18 11v2c-7.587 3.567-15.186 6.965-23 10q-2.658 1.06-5.312 2.125L365 807l-2.398 1.078c-3.023 1.071-5.72 1.336-8.914 1.547l-3.239.227L348 810v2q-3.343.475-6.687.938l-3.762.527c-11.367 1.415-22.735 1.772-34.176 1.785l-2.286.005c-35.415.005-35.415.005-48.089-5.255q-2.64-.792-5.3-1.508l-2.96-.8-3.053-.817-3.11-.84Q234.788 805.014 231 804v-2l-2.937-.25C219.176 800.453 210.9 794.999 203 791l-6-3v-2l-2.223-.848C182.422 780.026 169.161 769.76 160 760v-2l-1.75-.73c-2.68-1.512-4.246-3.254-6.25-5.582l-2.094-2.43L148 747l-2.5-2.937C144 742 144 742 144 740l-3-1c-1.187-3.062-1.187-3.062-2-6h-2l-1-4h-2c-6.488-11.078-11.825-21.853-16-34-.765-2.065-1.542-4.124-2.32-6.184-2.9-7.742-4.844-14.469-4.68-22.816h-2c-.368-3.186-.717-6.374-1.062-9.562l-.315-2.713c-.548-5.159-.623-9.629.377-14.725"/><path fill="#843A12" d="m580 235 2 1-1.477 1.15c-2.096 2.546-1.898 4.18-1.898 7.457l-.022 3.559.023 3.928-.012 4.159c-.01 3.818-.003 7.636.008 11.454.01 4.115 0 8.23-.005 12.344-.01 8.066-.003 16.132.009 24.198.013 9.392.012 18.785.01 28.177q-.003 25.144.028 50.288.029 24.395.02 48.79a53967 53967 0 0 0 .01 58.774l.001 2.816q.005 9.817.002 19.635-.003 11.974.017 23.947.013 6.108.007 12.216-.006 5.596.014 11.192c.004 1.983-.001 3.965-.007 5.948-.378 11.302-.378 11.302 4.272 20.968 2.207.298 2.207.298 4.796.24l3.068.009 3.379-.022h3.547q4.823-.001 9.644-.024c3.358-.013 6.716-.014 10.074-.016 6.36-.006 12.721-.023 19.082-.043 7.24-.022 14.481-.033 21.722-.043q22.344-.033 44.688-.101l1-3h2c-1.297 2.892-2.517 5.002-5 7-2.182.378-2.182.378-4.769.381l-2.974.026-3.258-.019-3.436.016c-3.758.013-7.516.005-11.274-.006q-3.91.003-7.82.01-8.206.006-16.408-.017c-6.319-.016-12.637-.01-18.955.006-6.081.015-12.162.013-18.243.004q-3.879-.004-7.758.008c-3.615.007-7.23-.004-10.845-.02l-3.246.018c-9.189-.08-9.189-.08-13.014-3.407-3.005-3.27-3.374-5.46-3.372-9.856l-.02-3.65.025-4.014-.01-4.261c-.01-3.908.001-7.815.014-11.722.011-4.212.005-8.424 0-12.636-.005-8.253.005-16.506.02-24.759.018-9.604.02-19.209.02-28.814q.004-25.698.042-51.398.035-24.956.04-49.91l.001-3.106.002-6.193v-3.086l.001-3.077q.007-23.758.028-47.515l.01-17.24q.006-13.672.027-27.343.011-6.25.012-12.5.002-5.715.016-11.43.003-2.071.002-4.146 0-2.806.01-5.614l.004-3.156C576 240 576 240 577 237z"/><path fill="#ED832E" d="M337 274c-24.882 14.93-57.983 3-87 3l1 364-2-1c-.88-4.507-1.125-8.886-1.123-13.468l-.006-3.832.009-4.17q0-2.231-.003-4.461-.002-6.117.007-12.232.005-6.6.002-13.2 0-11.432.008-22.862.011-16.528.012-33.055.004-26.814.019-53.63.014-26.047.02-52.093v-3.244l.005-16.111q.016-66.822.05-133.642 16.741-.231 33.484-.443 7.773-.098 15.547-.205 7.499-.104 14.997-.195 2.865-.036 5.728-.078 4.005-.056 8.009-.1l2.404-.04c3.224-.031 5.748.033 8.831 1.061"/><path fill="#AE612D" d="M367 388c1.125 3.75 1.125 3.75 0 6a269 269 0 0 0-.145 9.226l-.01 2.935q-.015 4.9-.019 9.8l-.02 7q-.022 7.558-.036 15.115-.022 10.948-.058 21.895-.057 17.789-.105 35.578l-.006 2.152q-.039 15.087-.073 30.174l-.005 2.142-.005 2.14q-.04 17.7-.101 35.402-.04 11.877-.056 23.753-.016 7.413-.047 14.824-.01 3.424-.012 6.849c-.009 26.74-.009 26.74-4.302 39.015h-1l.212-2.216c1.004-11.948.963-23.881.993-35.864l.03-7.247q.035-8.77.062-17.54.033-10.218.074-20.434.071-18.215.132-36.43.059-17.681.125-35.363l.008-2.206.041-10.96q.17-45.37.323-90.74h2z"/><path fill="#482114" d="M747 830h1l.044 3.998c.695 6.083 3.925 8.984 8.245 13.037l2.232 2.19a782 782 0 0 0 7.104 6.837q3.525 3.419 7.04 6.848a760 760 0 0 0 4.384 4.23 161 161 0 0 1 11.454 12.186c1.95 2.18 4.21 3.857 6.497 5.674a131 131 0 0 1 4.375 5.121c2.091 2.418 4.359 4.624 6.625 6.879l4.199 4.224q3.235 3.255 6.475 6.505 1.697 1.704 3.391 3.412c7.887 7.964 7.887 7.964 16.285 15.378 1.71 1.535 3.138 3.15 4.618 4.909 4.967 5.736 10.343 11.067 15.696 16.44l1.667 1.674a6825 6825 0 0 0 8.712 8.741c2.994 3 5.978 6.008 8.96 9.019 2.306 2.324 4.62 4.642 6.934 6.958q1.656 1.66 3.303 3.328a856 856 0 0 0 4.622 4.63l2.648 2.66c2.454 2.092 4.44 3.14 7.49 4.122v2c-6.497-.613-6.497-.613-8.625-2.25L891 987l-2.312-2.25a99 99 0 0 1-5.563-6.187c-2.581-3.066-5.393-5.557-8.477-8.102C873 969 873 969 870.562 966.062c-2.654-3.173-5.504-5.665-8.648-8.332-1.719-1.553-3.117-3.097-4.539-4.918-2.266-2.95-2.266-2.95-5.5-4.875C849 946 849 946 847.625 943.688c-2.058-3.403-4.68-5.505-7.7-8.054-2.093-1.775-4.019-3.659-5.925-5.633l-1.937-1.875C830 926 830 926 827.75 923.188c-2.627-3.22-5.683-5.78-8.84-8.465-2.593-2.34-4.682-5.038-6.91-7.723-1.713-1.518-3.473-2.966-5.238-4.422-1.828-1.638-3.335-3.366-4.887-5.265-1.78-2.163-2.935-3.35-5.375-4.813-4.599-2.76-7.58-7.339-10.875-11.5-2.7-3.086-5.583-5.617-8.703-8.262-1.76-1.591-3.206-3.191-4.672-5.05-1.953-2.708-1.953-2.708-4.18-3.618-2.468-1.276-3.696-2.735-5.445-4.883-2.98-3.527-6.034-6.298-9.625-9.187-6.861-6.55-6.861-6.55-7.23-10.41l.043-2.653.019-2.66C746 832 746 832 747 830"/><path fill="#BC5922" d="m1053 840 1 3c-1.152 1.797-1.152 1.797-2.937 3.75l-1.715 1.922c-1.936 1.919-3.898 3.68-5.965 5.45-4.478 3.905-8.678 8.046-12.863 12.26l-2.352 2.356q-3.68 3.69-7.355 7.387l-4.967 4.98q-4.553 4.565-9.1 9.134l-1.964 1.965a252 252 0 0 0-3.324 3.41A95 95 0 0 1 998 899h-2l-.75 1.75c-1.747 3.145-4.067 5.244-6.797 7.566-5.545 4.728-10.64 9.828-15.704 15.06l-1.772 1.808-1.592 1.642C968 928 968 928 966 928l-2 4h-2l-.625 1.688c-1.886 3.172-4.53 4.99-7.375 7.312a487 487 0 0 0-3 4h-2l-.625 1.688c-1.518 2.552-3.335 3.992-5.652 5.808-2.715 2.37-4.925 5.15-7.207 7.93L934 962h-2l-.625 1.688c-1.535 2.58-3.402 4.054-5.738 5.898-1.733 1.497-3.122 3.083-4.574 4.851-2.555 3.083-5.315 5.61-8.403 8.149-1.891 1.562-1.891 1.562-4.285 4.164-2.404 2.278-4.244 3.266-7.375 4.25v-2l-2.062-.062c-4.407-1.407-6.886-4.569-9.938-7.938l3-2 1.938 2.938c1.759 2.822 1.759 2.822 3.062 4.062 5.726.527 5.726.527 10.813-1.75 2.2-2.168 2.2-2.168 3.875-4.5L913 978h2l.75-1.75c1.433-2.58 3.034-4.311 5.25-6.25h2l.688-1.687c1.682-2.966 3.848-4.967 6.312-7.313l2.188-2.312C934 957 934 957 936 957l.625-1.687c1.51-2.541 3.314-4.078 5.645-5.872 2.395-1.995 4.539-4.228 6.73-6.441l1.669-1.683 3.725-3.762a6263 6263 0 0 1 8.545-8.604 2755 2755 0 0 0 4.513-4.554 2651 2651 0 0 1 6.528-6.573l2.043-2.073 1.892-1.893 1.663-1.677C981 911 981 911 983 911l.625-1.687c1.536-2.583 3.405-4.057 5.742-5.903 1.711-1.478 3.077-3.037 4.508-4.785 2.107-2.55 4.299-4.724 6.824-6.86 4.278-3.695 8.267-7.62 12.239-11.64l2.195-2.207q3.437-3.455 6.867-6.918 4.528-4.567 9.063-9.125l2.052-2.078a190 190 0 0 1 12.072-11.158c2.915-2.635 5.33-5.598 7.813-8.639"/><path fill="#EE7612" d="M707 383h2l-.212 2.621c-.773 10.395-.958 20.736-.993 31.156l-.03 5.504q-.04 7.4-.068 14.799-.035 7.76-.076 15.519a44745 44745 0 0 0-.138 29.322q-.076 16.706-.16 33.41-.17 34.335-.323 68.669h-2q-.07-37.095-.104-74.192-.014-17.224-.047-34.45-.03-15.015-.037-30.032-.003-7.948-.023-15.896-.02-7.488-.015-14.976 0-2.742-.012-5.483c-.036-8.872.012-17.314 2.238-25.971"/><path fill="#552210" d="M775 342c1.674.09 1.674.09 3.383.184 9.602.955 17.35 5.153 25.617 9.816l1.944 1.075c11.213 6.249 11.213 6.249 13.056 11.925a157 157 0 0 0 2.813 4.438c5.444 8.886 9.39 19.368 9.25 29.875l-.028 2.675L831 404c-2-2-2-2-2.195-4.164l.07-2.461.055-2.477L829 393h-2l-.48-2.527c-2.106-10.157-5.276-17.49-12.383-25.063C813 364 813 364 813 362l-1.687-.75C809 360 809 360 806.719 358.145 789.69 344.713 769.689 344.673 749 347c-2.669.318-5.334.654-8 1v2l-8 2v2a149 149 0 0 1-4.277 2.871c-5.134 3.365-8.338 6.432-10.723 12.129h-2l-2 7h-1c-.585-3.26-.398-5.354 1.348-8.191 3.545-4.605 7.347-8.905 11.652-12.809h2v-2c11.964-10.736 31.751-12.09 47-11"/><path fill="#5D280F" d="M747 830h1l.044 3.998c.695 6.083 3.925 8.984 8.245 13.037l2.232 2.19a782 782 0 0 0 7.104 6.837q3.525 3.419 7.04 6.848a760 760 0 0 0 4.384 4.23 161 161 0 0 1 11.454 12.186c1.95 2.18 4.21 3.857 6.497 5.674 1.56 1.722 3.047 3.494 4.535 5.277 2.025 2.381 4.229 4.541 6.465 6.723q1.908 1.904 3.813 3.813l1.832 1.832L813 904l-1 2c-3.222-1.074-3.742-1.632-5.75-4.187-3.535-4.28-7.562-7.71-11.922-11.122-2.356-1.872-4.185-3.445-5.703-6.066-2.054-3.318-4.667-5.36-7.633-7.86-2.676-2.371-4.76-4.974-6.992-7.765-2.623-2.89-2.623-2.89-5.91-4.871-2.449-1.323-3.713-2.79-5.465-4.942-2.98-3.527-6.034-6.298-9.625-9.187-6.861-6.55-6.861-6.55-7.23-10.41l.043-2.653.019-2.66C746 832 746 832 747 830"/><path fill="#F5852D" d="m587.717 232.726 2.94-.03 3.22-.002 3.397-.026c3.716-.024 7.432-.032 11.148-.04l7.739-.026q8.121-.025 16.241-.028a3060 3060 0 0 0 18.744-.075c6.018-.039 12.035-.05 18.054-.051q3.834-.006 7.669-.038c3.579-.027 7.156-.022 10.735-.01l3.197-.044c6.718.067 10.184 1.091 15.199 5.644 1.142 2.283 1.153 3.635 1.205 6.174l.06 2.609.051 2.819.063 2.883q.097 4.57.184 9.14l.13 6.187q.161 7.594.307 15.188c-2.622-2.622-2.233-4.476-2.25-8.045l.012-2.506q-.024-2.622-.05-5.244a970 970 0 0 1-.017-8.275c.002-2.66-.026-5.32-.058-7.98l.03-2.489c-.074-4.403-.21-5.934-3.207-9.395L700 237v-2H580c3.203-2.136 4.036-2.254 7.717-2.274"/><path fill="#8A420F" d="m413 780 3 1c-11.337 8.815-11.337 8.815-18 10v2c-7.587 3.567-15.186 6.965-23 10q-2.658 1.06-5.312 2.125L365 807l-2.398 1.078c-3.023 1.071-5.72 1.336-8.914 1.547l-3.239.227L348 810v2c-13.472 1.83-26.602 2.175-40.184 1.779-3.17-.093-6.34-.167-9.51-.238q-3.053-.076-6.107-.154l-2.84-.07c-4.543-.136-8.889-.417-13.359-1.317v-1l1.953.02c6.816.067 13.631.112 20.447.145q3.796.022 7.593.061c18.544.188 36.38.023 54.007-6.226a406 406 0 0 1 5.313-1.687l2.425-.762C370 802 370 802 374 802v-2l3.176-1.242 4.137-1.633 2.091-.816c3.106-1.23 5.806-2.449 8.596-4.309h3v-2l2.875-1.125c5.077-2.164 11.194-4.944 15.125-8.875"/><path fill="#682F16" d="M337 274c-4.275 3.17-7.95 3.415-13.095 3.34l-2.426.002c-2.635-.002-5.27-.025-7.905-.049q-2.746-.009-5.494-.013c-4.812-.011-9.623-.04-14.435-.074-4.914-.03-9.827-.044-14.74-.06A8978 8978 0 0 1 250 277v-3q16.35-.231 32.701-.443 7.593-.098 15.184-.205 7.323-.104 14.647-.195 2.798-.036 5.594-.078 3.912-.056 7.822-.1l2.348-.04c3.186-.032 5.656.045 8.704 1.061"/><path fill="#88553E" d="M704 584h2c-1.296 2.892-2.515 5.005-5 7-2.196.37-2.196.37-4.803.36l-2.995.013-3.283-.032h-3.46c-3.782-.001-7.563-.025-11.346-.048l-7.856-.013c-6.195-.01-12.389-.034-18.583-.064-7.052-.033-14.104-.05-21.156-.065Q605.76 591.103 584 591l-1-2c2.903-.968 4.78-1.136 7.803-1.158l2.995-.03 3.283-.017 3.46-.03q5.672-.047 11.346-.081l7.856-.063q9.291-.074 18.583-.138 10.578-.076 21.156-.16 21.759-.17 43.518-.323z"/><path fill="#C96017" d="M480 695c1.868 4.855-.569 8.42-2.54 12.91-1.594 3.373-3.324 6.615-5.19 9.844-2.258 3.995-4.25 8.127-6.27 12.246h-2l-.781 1.652c-4.443 8.559-10.331 15.904-16.918 22.891a100 100 0 0 0-5.238 6.082c-4.052 4.802-9.167 8.483-14.063 12.375a590 590 0 0 0-3.562 3.063C421 778 421 778 419 778v2l-3 1-1-2c2.945-3.19 4.76-5.091 9-6l1-3c2.063-.687 2.063-.687 4-1v-2c1.363-1.34 1.363-1.34 3.313-2.937 11.98-10.221 21.767-21.461 29.828-34.985a101 101 0 0 1 3.773-5.805c2.831-4.443 4.99-9.127 7.211-13.898l2.633-5.602 1.16-2.486A268 268 0 0 1 480 695"/><path fill="#E2DDDA" d="m580 589 1.71.491c2.386.53 4.49.642 6.934.654l2.812.02 3.064.009 3.243.02q3.486.021 6.97.036 5.51.026 11.017.065 15.66.105 31.322.182 9.578.049 19.154.12 3.656.024 7.313.037c3.4.012 6.8.036 10.2.063l3.076.002 2.795.03 2.437.012C694 591 694 591 696 593a47746 47746 0 0 1-42.325.052q-9.826.007-19.653.023-9.482.016-18.965.02-3.618.003-7.236.01-5.067.01-10.134.009l-3.023.01c-4.671-.007-9.07-.153-13.664-1.124z"/><path fill="#62250C" d="m788 344-1.937.438c-2.038.372-2.038.372-3.063 1.562-1.57.063-3.144.06-4.715.027l-2.996-.04-3.226-.05c-10.505-.094-20.67.593-31.063 2.063v2l-8 2v2a149 149 0 0 1-4.277 2.871c-5.134 3.365-8.338 6.432-10.723 12.129h-2l-2 7h-1c-.585-3.26-.398-5.354 1.348-8.191 3.545-4.605 7.347-8.905 11.652-12.809h2v-2c15.312-13.74 41.35-12.633 60-9"/><path fill="#DFD8D3" d="M28 277h77l-1 2c-59.891 2.479-59.891 2.479-76-1z"/><path fill="#E1DAD5" d="M250 277h82v1a1029 1029 0 0 1-35.483 1.558c-2.571.068-5.142.146-7.712.223q-2.466.068-4.93.133l-2.316.072c-5.33.128-5.33.128-7.559-.986a59 59 0 0 0-4.246.121l-2.537.147-2.654.17-5.184.308-2.326.146A97 97 0 0 1 252 280z"/><path fill="#442115" d="M185 778c3.705.565 6.233 1.54 9.375 3.563 4.36 2.706 8.788 5.209 13.313 7.625l1.87 1.008c5.937 3.157 12.048 5.725 18.38 7.991l2.902 1.043 2.16.77v2c-6.889-.437-11.87-1.906-18-5l-3.023-1.492c-3-1.489-5.99-2.996-8.977-4.508l-6-3v-2l-2.062-.75c-3.507-1.492-6.654-3.318-9.938-5.25z"/><path fill="#6A2E0F" d="M108 639h1l.304 2.44q.58 4.593 1.185 9.181c.253 1.946.496 3.893.738 5.84 1.686 12.717 5.124 24.5 9.923 36.36.67 1.706 1.267 3.44 1.85 5.179l-1 2c-3.452-2.302-3.713-3.25-5-7.062l-1.02-2.981L115 687l-.887-2.55c-2.185-6.342-3.246-11.678-3.113-18.45h-2c-.368-3.186-.717-6.374-1.062-9.562l-.315-2.713c-.548-5.159-.623-9.629.377-14.725"/><path fill="#C35902" d="M838 929c3.393.567 4.704 1.442 6.813 4.125 3.74 4.476 7.766 8.615 11.875 12.75l1.981 2.02 1.905 1.91 1.706 1.718c1.805 1.55 3.556 2.507 5.72 3.477v2h2a281 281 0 0 1 5 5l2.75 2.063c2.352 2.025 2.926 2.912 3.25 5.937h2c1.026 1.65 2.023 3.32 3 5 1.582 1.751 1.582 1.751 3 3l-1 2q-9.784-9.748-19.558-19.506-4.537-4.531-9.08-9.056-4.38-4.364-8.753-8.734l-3.35-3.338a2675 2675 0 0 1-4.67-4.663l-2.69-2.685C838 930 838 930 838 929"/><path fill="#E77903" d="m580 584 1.79.426c6.577 1.456 12.812 1.878 19.535 1.893l3.285.03c3.55.03 7.098.048 10.648.065q3.711.028 7.423.059c6.487.05 12.974.09 19.461.128 6.63.04 13.26.091 19.89.141q19.483.145 38.968.258v1q-23 .141-46 .207-10.68.028-21.359.095c-6.866.044-13.732.067-20.599.078q-3.936.01-7.872.043c-3.666.029-7.331.033-10.997.031l-3.311.044-3.022-.017-2.628.011C583 588 583 588 581.197 585.97z"/><path fill="#BA5A1B" d="M931 960h2c-1.22 4.607-3.583 6.532-7.14 9.398-1.841 1.586-3.322 3.225-4.86 5.102-2.53 3.064-5.275 5.567-8.34 8.086-1.891 1.562-1.891 1.562-4.285 4.164-2.404 2.278-4.244 3.266-7.375 4.25v-2l-2.062-.062c-4.407-1.407-6.886-4.569-9.938-7.938l3-2 1.938 2.938c1.759 2.822 1.759 2.822 3.062 4.062 5.726.527 5.726.527 10.813-1.75 2.2-2.168 2.2-2.168 3.875-4.5L913 978h2l.75-1.75c1.433-2.58 3.034-4.311 5.25-6.25h2l.688-1.687c1.674-2.95 3.862-4.988 6.312-7.313z"/><path fill="#B9ABA3" d="m253.652 809.39 3.286.86c22.045 5 44.596 3.969 67.062 3.75-3.84 2.56-7.136 2.423-11.602 2.555l-2.61.092c-2.804.09-5.608.162-8.413.228l-2.875.074c-17.099.402-34.234.002-50.5-5.949 3-2 3-2 5.652-1.61"/><path fill="#5C2A0F" d="M161 756c3.565 1.536 6.039 3.684 8.875 6.313l2.668 2.433q2.099 1.925 4.195 3.852c2.537 2.235 4.684 3.58 7.825 4.902 3.719 1.623 5.757 3.495 8.437 6.5-7.663 0-12.625-2.596-18.375-7.312l-1.863-1.436c-3.518-2.813-5.363-4.865-6.762-9.252-1.24-1.798-1.24-1.798-2.625-3.312z"/><path fill="#8D3205" d="M22 264h2l.25 2.813c.464 3.161.464 3.161 2.321 4.86 3.315 1.811 6.359 1.767 10.043 1.76l2.307.03c2.511.03 5.021.04 7.532.049l5.23.054c4.583.048 9.166.077 13.75.104 4.678.03 9.357.076 14.036.121q13.765.127 27.531.209v1q-15.96.106-31.919.155c-4.94.016-9.88.037-14.82.071-4.766.033-9.532.05-14.297.059q-2.73.008-5.46.032c-2.546.022-5.09.025-7.636.024l-2.29.032c-5.092-.03-5.092-.03-7.551-1.767-1.928-3.016-1.198-6.128-1.027-9.606"/><path fill="#BC531C" d="m1053 840 1 3c-1.152 1.797-1.152 1.797-2.937 3.75l-1.715 1.922c-1.91 1.894-3.843 3.632-5.883 5.379-5.597 4.846-10.756 10.133-15.965 15.386l-3.07 3.084q-3.72 3.736-7.43 7.479l-3-1a7638 7638 0 0 1 10.242-10.297l3.473-3.494c11.718-11.803 11.718-11.803 17.65-16.748 2.861-2.557 5.212-5.493 7.635-8.461"/><path fill="#DED2C9" d="M791 348v3q-2.938-.464-5.875-.937l-3.305-.528C779 349 779 349 777 348c-3.932-.243-7.873-.185-11.812-.187l-3.315-.038-3.205-.005-2.929-.013c-2.925.26-5.033 1.151-7.739 2.243-3.812-.375-3.812-.375-7-1 14.085-8.137 34.856-4.383 50-1"/><path fill="#A54401" d="M799 890c4.975 1.261 7.092 2.772 10.125 6.875a136 136 0 0 0 11.188 12.688l1.525 1.552c2.57 2.551 4.895 4.354 8.162 5.885l1 4c1.866 1.183 1.866 1.183 4 2l3 2-1 3c-6.699-5.598-12.855-11.701-19.01-17.88a2048 2048 0 0 0-5.054-5.048l-3.26-3.263-1.503-1.497c-3.27-3.291-6.249-6.718-9.173-10.312"/><path fill="#964817" d="m413 780 3 1c-11.337 8.815-11.337 8.815-18 10v2a1829 1829 0 0 1-9.656 4.457c-1.886.87-3.766 1.753-5.625 2.68-1.781.863-1.781.863-4.719 1.863-2.184-.937-2.184-.937-4-2l3.176-1.242 4.137-1.633 2.091-.816c3.106-1.23 5.806-2.449 8.596-4.309h3v-2l2.875-1.125c5.077-2.164 11.194-4.944 15.125-8.875"/><path fill="#D66806" d="m111 660 2 1v6h2c.985 3.44 1.966 6.879 2.93 10.324 2.5 12.658 2.5 12.658 8.07 23.676.04 1.666.043 3.334 0 5-2.283-2.775-3.484-5.03-4.375-8.5-1.07-3.852-2.41-7.362-4.062-11C114.2 678.695 111 668.58 111 660"/><path fill="#F4881C" d="m116 166 1 4c-1.475 2.122-1.475 2.122-3.7 4.363l-2.415 2.436-2.573 2.513-2.513 2.573-2.436 2.416-2.24 2.224L99 188l-4-1z"/><path fill="#4E2312" d="M792 884c3.224 1.075 3.826 1.703 5.875 4.25 2.562 3.097 5.245 5.94 8.125 8.75q1.908 1.904 3.813 3.813l1.832 1.832L813 904l-1 2c-3.222-1.074-3.742-1.632-5.75-4.187-3.09-3.74-6.499-6.758-10.25-9.813q-1.72-1.437-3.437-2.875L790 887c1-2 1-2 2-3"/><path fill="#DBCFC8" d="M1015 881c0 4.686-2.974 6.972-6.176 10.18L1006 894q-1.8 1.865-3.594 3.734l-3.906 4.016-1.973 2.074-1.933 1.973-1.729 1.792c-2.253 1.704-4.092 2.046-6.865 2.411a141 141 0 0 1 5-5h2l.836-1.793c3.108-5.892 8.185-10.237 13.195-14.496 2.803-2.436 5.377-5.054 7.969-7.711"/><path fill="#E07622" d="M480 695c1.957 6.5-2.27 12.695-5.273 18.434a360 360 0 0 1-2.457 4.32c-2.258 3.995-4.25 8.127-6.27 12.246l-2-1c1.587-5.518 4.154-10.294 6.875-15.312 3.313-6.13 6.39-12.278 9.125-18.688"/><path fill="#421F16" d="M782 344c9.614 1.853 17.952 5.35 26 11l2 3c-4.858-1.057-8.885-3.586-13.16-6.03-3.406-1.882-6.444-3.213-10.262-4.036L783 347z"/><path fill="#903701" d="M747 830h1l-.129 3.84c.792 7.131 6.189 11.074 11.192 15.722l2.876 2.768A622 622 0 0 0 769 859c-3 0-3 0-4.901-1.56l-2.11-2.159-2.296-2.324-2.38-2.457-2.417-2.457A1282 1282 0 0 1 749 842l-1 3c-2.18-3.271-2.249-4.274-2.187-8.062l.019-2.66C746 832 746 832 747 830"/><path fill="#D8CFC8" d="m372 803 3 1c-3.427 3.884-7.553 4.758-12.375 6.25l-2.578.852c-7.721 2.429-7.721 2.429-12.047.898v-2l3.219-.516c7.65-1.29 13.924-2.72 20.781-6.484"/><path fill="#F0872C" d="m339 680 2 1c-5.634 6.227-13.865 8.97-22 10-2.96.11-5.913.095-8.875.063l-2.375-.014q-2.875-.02-5.75-.049v-1h15v-2q2.625-.506 5.25-1l2.953-.562C328 686 328 686 332 686v-2l5-1v-2z"/><path fill="#3C1A10" d="M748 841c5.306 4.341 10.124 9.05 14.911 13.948 2.766 2.89 2.766 2.89 6.089 5.052v2c-4.294-.477-6.109-2.974-9-6a299 299 0 0 0-3.5-2.875c-3.561-3.008-6.003-6.19-8.5-10.125z"/><path fill="#EB852D" d="M48 235c0 4.075-1.553 5.805-4 9a89 89 0 0 1-4 2l-.86 1.852c-1.376 2.592-2.884 3.708-5.265 5.398l-2.195 1.578L30 256l-2-1z"/><path fill="#D96B04" d="M131 716c3.135 1.081 3.987 1.978 5.75 4.875C138 724 138 724 138 728l4 2v2h2a149 149 0 0 1 4 6 242 242 0 0 0 3 4l-1 2q-1.659-1.873-3.312-3.75l-1.864-2.11C140 732.48 140 732.48 140 730l-3-1c-1.352-2.18-1.352-2.18-2.625-4.875l-1.29-2.68C132 719 132 719 131 716"/><path fill="#8E4013" d="M891 979c2.756 1.378 3.489 3.371 5 6 1.202 1.413 1.202 1.413 4.688 1.375 4.905-.018 6.927-1.99 10.312-5.375l2 1c-2.872 3.976-5.767 6.515-10 9h-2v-2l-2.062-.062c-4.407-1.407-6.886-4.569-9.938-7.938z"/><path fill="#B75A17" d="m434 764 2 1q-2.341 2.127-4.687 4.25l-2.637 2.39C421.464 778 421.464 778 419 778v2l-3 1-1-2c2.945-3.19 4.76-5.091 9-6l1-3c2.063-.687 2.063-.687 4-1v-2c2.375-1.687 2.375-1.687 5-3"/><path fill="#A64501" d="M838 929c3.57.561 4.92 1.68 7.16 4.469 4.151 4.966 8.68 9.481 13.278 14.031l2.505 2.492Q863.968 953 867 956l-1 2q-5.985-5.95-11.963-11.908l-4.074-4.054a4188 4188 0 0 1-5.838-5.815l-1.856-1.84A282 282 0 0 1 838 930z"/><path fill="#AB5421" d="m730 352 3 2-2.625 1.688c-5.576 3.757-9.715 6.958-12.375 13.312h-2l-2 7h-1c-.585-3.26-.398-5.354 1.348-8.191 3.545-4.605 7.347-8.905 11.652-12.809h2v-2z"/><path fill="#482113" d="M837 930c3.043 1.358 5.123 2.885 7.453 5.258l1.875 1.894 1.922 1.973 1.969 1.996q2.397 2.433 4.781 4.879l-3 1c-4.11-2.704-6.911-6.216-10-10l-2.812-2.75C837 932 837 932 837 930"/><path fill="#CF6103" d="M366.563 801.938 370 802c-3.949 2.16-8.004 3.122-12.344 4.219-2.602.662-2.602.662-4.578 1.836-2.923 1.33-5.636 1.379-8.828 1.57l-3.547.227L338 810l1-2c2.209-.67 2.209-.67 5.094-1.254l3.12-.65 3.286-.659q3.205-.653 6.406-1.316l2.885-.58c6.532-1.6 6.532-1.6 6.772-1.604"/><path fill="#E6781F" d="M488 666h2c-.585 6.142-1.54 12.007-3 18h-2l-.437 3.813c-.3 2.614-.721 4.661-1.563 7.187h-2c.655-5.779 2.215-10.938 4.184-16.395 1.484-4.241 2.313-8.167 2.816-12.605"/><path fill="#CA5E03" d="m757.656 340.734 3.348-.007 3.496.023 3.496-.023 3.348.007 3.068.007C777 341 777 341 780 343l-1.781-.063c-11.338-.35-21.56-.29-32.418 3.188C743 347 743 347 740 347v-2l1.863-.367 2.45-.508 2.425-.492c10.355-2.897 10.355-2.897 10.918-2.899"/><path fill="#F7902B" d="m168 113 1 4c-1.914 2.473-1.914 2.473-4.625 5.063l-2.664 2.597c-2.488 2.147-4.765 3.887-7.711 5.34l-2-1z"/><path fill="#B04F03" d="m241 803 13 1v2l1.758.148c4.714.452 8.753 1.29 13.242 2.852 2.327.375 4.66.72 7 1v1c-6.002.218-11.192-.494-17-2v-2l-3.375.188c-5.186.027-9.763-1.514-14.625-3.188z"/><path fill="#472112" d="m211 794 2.875.563c3.024.724 3.024.724 5.125-.563l2.063 1.25c3.794 2.26 7.733 3.458 11.937 4.75v2c-6.836-.434-11.91-1.914-18-5l-2.262-1.129L211 795z"/><path fill="#774E3A" d="m778.523 342.907 2.41-.055 2.155-.06C785 343 785 343 788 345h-5v1h-28c2.336-2.336 2.864-2.277 6.035-2.414l2.455-.117 2.572-.094 2.49-.117c3.323-.147 6.647-.229 9.97-.35"/><path fill="#C9C0B9" d="M190 783c4.75 1.875 4.75 1.875 7 3v2l2.438.688c4.475 1.648 8.45 3.917 12.562 6.312l-2 2-12-6v-2l-4-1v-2h-3z"/><path fill="#F6881A" d="m130 152 1 2c-2.339 5.301-6.884 9.06-11 13l-3-2z"/><path fill="#43190B" d="M849 944c7.62 3.105 12.438 8.027 18 14l-3 1c-1.937-1.328-1.937-1.328-4-3.25l-2.062-1.89a179 179 0 0 1-3.551-3.497c-1.443-1.489-1.443-1.489-3.574-2.926L849 946z"/><path fill="#F77F10" d="M964 353h1q.509 4.218 1 8.438c.095.783.19 1.566.29 2.373 1.694 14.712 1.694 14.712-1.29 19.189v-18h-2z"/><path fill="#D36402" d="M766 856c6.124 2.722 10.09 7.098 14.254 12.195 1.805 1.866 3.373 2.798 5.746 3.805v5l-2.012-2.016a1875 1875 0 0 0-6.758-6.718l-4.043-4.016-2.1-2.074-1.982-1.973-1.807-1.792C766 857 766 857 766 856"/><path fill="#D9CCC5" d="m932 962 2 1c-1.52 3.553-3.613 5.943-6.312 8.688l-2.301 2.386c-2.557 2.063-4.159 2.589-7.387 2.926 3.54-4.382 7.191-8.2 11.582-11.738 1.555-1.227 1.555-1.227 2.418-3.262"/><path fill="#C55C1C" d="M993 899h2c-.556 3.889-2.114 5.41-5 8l-1.937 1.809c-.702.64-1.403 1.28-2.125 1.941l-2.036 1.86C982 914 982 914 979 914l2-3h2l.625-1.687c1.885-3.171 4.529-5 7.375-7.313z"/><path fill="#DD6B03" d="M395 792q-3.093 1.44-6.187 2.875l-3.481 1.617C377.58 800 377.58 800 374 800v2l-4-1q3.28-1.66 6.563-3.312l1.845-.936A421 421 0 0 1 384 794l1.886-.935c3.362-1.577 5.586-2.617 9.114-1.065"/><path fill="#D86703" d="M825 376h2c4.142 9.225 5.274 16.866 5 27h-1l-.297-2.676c-.89-7.148-2.19-13.53-4.898-20.215C825 378 825 378 825 376"/><path fill="#6A2204" d="M22 264h2l.25 2.813c.492 3.148.492 3.148 2.25 5 3.703 1.758 7.444 1.936 11.5 2.187v1c-2.104.081-4.208.14-6.312.188l-3.551.105C25 275 25 275 23.094 273.75c-1.961-3.137-1.272-6.135-1.094-9.75"/><path fill="#8A4A25" d="M108 639h1q.547 4.499 1.063 9l.314 2.543c.606 5.39.51 10.102-.377 15.457h-1c-.368-3.186-.717-6.374-1.062-9.562l-.315-2.713c-.548-5.159-.623-9.629.377-14.725"/><path fill="#CBC1B9" d="M213 796c6.107 1.765 12.074 3.696 18 6v1c-4.213 1.032-6.895 1.41-10.625-.812l-1.73-1.13c-2.1-1.35-4.305-2.207-6.645-3.058z"/><path fill="#6F3518" d="M110 658c2.225 3.748 2.946 7.774 3.75 12l.457 2.156c.6 3.119.985 5.324-.129 8.344L113 682q-.764-3.747-1.5-7.5l-.434-2.11c-.949-4.88-1.2-9.417-1.066-14.39"/><path fill="#43190C" d="M792 884c3.41 1.137 4.376 2.258 6.688 4.938l1.886 2.152C802 893 802 893 802 895c-4.98-1.51-8.243-4.557-12-8 1-2 1-2 2-3"/><path fill="#7E3209" d="M827 384c4.057 4.057 4.125 10.029 4.125 15.5-.032 1.5-.07 3-.125 4.5-2-2-2-2-2.195-4.164l.07-2.461.055-2.477L829 393h-2c-1.125-6.75-1.125-6.75 0-9"/><path fill="#82380A" d="M161 756c3.71 1.578 6.3 3.907 9.25 6.625l2.703 2.477L175 767l-2 1-2-1-1 2c-2.901-2.523-2.901-2.523-3.375-4.812-.981-3.435-3.27-5.532-5.625-8.188"/><path fill="#763B15" d="M228 798c4.847.591 8.607 1.98 13 4l-2 1v2l-8-1v-2h2v-2l-5-1z"/><path fill="#CE7637" d="M360 653c1.125 3.75 1.125 3.75 0 6h-2l-.25 2.063c-.973 3.812-2.708 6.578-4.75 9.937h-2v2l-2-1q1.426-2.507 2.875-5l1.617-2.812L355 662h2l1-7h2z"/><path fill="#EF842D" d="m731 266 1 2-1.312 1.25c-1.755 1.672-1.755 1.672-2.813 3.75-2.949 3.145-6.798 3.872-10.875 5 4.266-4.541 9.036-8.247 14-12"/><path fill="#B45102" d="m210 790 2.125.438c2.95.577 5.908 1.079 8.875 1.562v2h2v2l5 1c-1.687.688-1.687.688-4 1a98 98 0 0 1-5-3 136 136 0 0 0-6.328-2.254C211 792 211 792 210 790"/><path fill="#B45002" d="M193 781c3.024.588 6.018 1.227 9 2v2c2.652 1.075 5.284 2.095 8 3v2c-6.401-1.392-11.617-4.285-17-8z"/><path fill="#D06720" d="M464 726c1 3 1 3-.5 6.063-2.927 4.803-6.226 9.367-9.5 13.937l-2-2 1.61-2.16c3.792-5.142 7.382-10.2 10.39-15.84"/><path fill="#D96D15" d="M367 388c1.125 3.75 1.125 3.75 0 6a99 99 0 0 0-.316 5.008l-.127 2.988-.12 3.129-.13 3.152A2507 2507 0 0 0 366 416h-1a969 969 0 0 1-.687-11.187l-.221-3.198-.166-3.095-.175-2.841c.3-3.222 1.422-5.046 3.249-7.679"/><path fill="#723412" d="m809 356 8 4-1 4h-3v-2l-4-2z"/><path fill="#DAC9BE" d="M981 914c0 4.023-1.324 5.043-4 8-1.952 1.733-3.968 3.357-6 5l-1.75 1.813C968 930 968 930 966 930v-2c1.504-1.48 1.504-1.48 3.563-3.187 4.024-3.415 7.759-7.031 11.437-10.813"/><path fill="#CABFB6" d="M233 804q3.472.674 6.938 1.375l3.902.773L247 807l1 2c-3.788 1.434-6.065.51-9.75-.937l-2.984-1.153L233 806z"/><path fill="#D4CBC3" d="M335 814c-4.854 4.017-10.05 3.281-16 3 2.597-2.597 4.404-2.613 8-3.187l3.25-.543C333 813 333 813 335 814"/><path fill="#682A0E" d="M378 802c-6.361 2.514-12.16 4.484-19 5 1-2 1-2 4.02-3.105l3.793-1.082 3.769-1.106c3.087-.639 4.55-.84 7.418.293"/><path fill="#C55B01" d="M786 877c1.938.375 1.938.375 4 1l1 2 1.938.875c2.506 1.367 2.912 2.58 4.062 5.125l2 1-1 3-1.5-2.062c-2.722-3.2-5.68-5.79-8.89-8.485L786 878z"/><path fill="#D7CEC6" d="m258.188 810.438 3.855.87L265 812c-3.71 2.473-4.786 2.019-9.062 1.25l-3.223-.547C250 812 250 812 248 810c3.906-1.302 6.195-.478 10.188.438"/><path fill="#A74913" d="M704 584h2c-.625 1.875-.625 1.875-2 4-4.724 2.106-8.83 2.114-13.875 1.625l-2.086-.172c-1.68-.14-3.36-.295-5.039-.453v-1l20-1z"/><path fill="#D26401" d="m580 584 1.8.402c6.385 1.36 12.692 2.128 19.2 2.598v1c-2.938.108-5.873.187-8.812.25l-2.526.102c-2.288.036-4.405.033-6.662-.352-2.074-2.016-2.074-2.016-3-4"/><path fill="#CEC1BA" d="m780 346 11 2v3l-12-2z"/><path fill="#C55A02" d="m827 916 3 1 .438 1.938c.352 2.23.352 2.23 2.437 3.187L835 923l3 2-1 3-3.875-3.375-2.18-1.898A91 91 0 0 1 827 919z"/><path fill="#8A553C" d="M747 830h1q.254 2.124.5 4.25l.281 2.39c.532 5.734.532 5.734-.781 8.36-2.18-3.271-2.249-4.274-2.187-8.062l.019-2.66C746 832 746 832 747 830"/><path fill="#6C4839" d="M257 810c6.44-.107 12.626.038 19 1-4.698 3.132-9.52 2.141-14.937 1.625L258 812z"/><path fill="#482519" d="M159 756c4.274 1.583 6.265 4.506 9 8h-4c-5-5.227-5-5.227-5-8"/><path fill="#5D331F" d="m832 923 6 5-1 3c-4.677-1.477-4.677-1.477-6.312-4.125L830 925h2z"/><path fill="#D2C5BC" d="M360 810c-3.473 2.315-5.884 2.626-10 3l-2-1v-2c4.256-1.16 7.684-.762 12 0"/><path fill="#AA4C02" d="M181 773c4.517.531 7.42 2.234 11 5l1 3c-4.557-1.519-8.317-3.954-12-7z"/><path fill="#C65E04" d="M131 716c2.772 1.027 3.828 1.694 5.3 4.313.335.886.669 1.773 1.012 2.687l1.051 2.688C139 728 139 728 138 730a1438 1438 0 0 1-3.5-5.875l-1.969-3.305C131 718 131 718 131 716"/><path fill="#C0B0A5" d="M836 931c3.806 3.208 7.546 6.407 11 10l-1 2c-2-1.375-2-1.375-4-3v-2l-1.875-.125L838 937c-1.25-3.062-1.25-3.062-2-6"/><path fill="#C85C01" d="M799 890c4.3.9 6.388 2.098 8.875 5.625L810 899c-4.272-.818-6.088-2.781-9-6z"/><path fill="#D6C0B2" d="m1052 844 1 2a335 335 0 0 1-3.25 3.938l-1.828 2.214c-2.03 1.951-3.176 2.465-5.922 2.848 1.375-2 1.375-2 3-4h2l.813-1.812c1.172-2.16 2.38-3.546 4.187-5.188"/><path fill="#CFC7C1" d="M136 733h3l1.375 2.938c1.283 3.133 1.283 3.133 3.625 4.062v2l-1.812-.937c-2.278-1.165-2.278-1.165-5.188-2.063z"/><path fill="#D2712B" d="M718 363c1.125 3.75 1.125 3.75 0 6h-2l-2 7h-1c-.642-5.262.794-7.686 3.906-11.68z"/><path fill="#F08C38" d="M94 188c0 4.32-2.068 6.918-5 10-2.812.938-2.812.938-5 1 3.208-3.806 6.407-7.546 10-11"/><path fill="#B85302" d="M891 979c2.756 1.378 3.489 3.371 5 6 1.968 1.968 5.348 1.662 8 2v1c-6.869.844-6.869.844-10.09-1.559A79 79 0 0 1 889 981z"/><path fill="#482013" d="M748 841q1.693 1.4 3.375 2.813l1.898 1.582C755 847 755 847 757 850c-4 0-4 0-5.484-1.46l-1.266-1.915-1.297-1.898C748 843 748 843 748 841"/><path fill="#8D4012" d="M387 796v2a198 198 0 0 1-4.25 2.125l-2.39 1.195c-2.36.68-2.36.68-4.657-.203L374 800q2.685-1.004 5.375-2l3.023-1.125C385 796 385 796 387 796"/><path fill="#AB5521" d="m434 764 2 1-10 9c0-3 0-3 1-5h2v-2c2.375-1.687 2.375-1.687 5-3"/><path fill="#D4C4B9" d="m753 346-1 3c-6.4 1.23-6.4 1.23-9.437.063L741 348l3.75-1 2.11-.562C749 346 749 346 753 346"/><path fill="#B2551B" d="m918 973 3 1-8 8-2-2 1.875-.75c2.495-1.468 3.026-2.63 4.125-5.25z"/><path fill="#3D1609" d="M846 939c4.274 1.583 6.265 4.506 9 8-4.248-.472-6.268-2.889-9-6z"/><path fill="#471E10" d="m892 985 1.688.875c2.397 1.166 4.828 2.159 7.312 3.125v2l-7-1z"/><path fill="#3E180B" d="M875 968c3.362 1.44 5.592 3.248 8 6v2c-3.889-1.261-5.894-2.453-8-6z"/><path fill="#662F1B" d="M821 374c1.922.328 1.922.328 4 1 1.697 3.734 2.24 6.922 2 11-1.71-2.565-2.904-4.88-4.125-7.687l-1.07-2.45z"/><path fill="#853C17" d="m738 347 3 1v2l-10 3c4.75-4.875 4.75-4.875 7-6"/><path fill="#5C3B2D" d="M849 944q1.943.892 3.875 1.813l2.18 1.019C857 948 857 948 859 951l-2 2-1.75-1.812c-2.158-2.204-2.158-2.204-4.5-3.813L849 946z"/><path fill="#523020" d="m211 794 2.875.563c3.024.724 3.024.724 5.125-.563l4 4c-8.571-.857-8.571-.857-12-3z"/><path fill="#914B23" d="M398 792a61 61 0 0 1-7.187 4.125l-2.168 1.07L387 798v-3c3.665-2.91 6.394-3.321 11-3"/><path fill="#C26422" d="M441.375 758.188 443 759c-3.173 3.536-5.167 5.586-10 6v-2c5.182-5.065 5.182-5.065 8.375-4.812"/><path fill="#582916" d="M120 698c3.123 2.518 3.945 3.726 4.75 7.75L125 709c-3.291-3.61-4.547-6.126-5-11"/><path fill="#D3C5BC" d="m916 978 2 3c-1.75 2.063-1.75 2.063-4 4-2.25-.25-2.25-.25-4-1l1.875-.75c2.476-1.456 3.076-2.628 4.125-5.25"/><path fill="#D9CBC2" d="M956 939c0 4.39-2.128 5.77-5 9l-2-1v-2c1.531-1.508 1.531-1.508 3.5-3.125l1.969-1.633z"/><path fill="#C36530" d="M993 899h2c-.542 3.796-2.201 5.472-5 8l-2-2a159 159 0 0 1 5-6"/><path fill="#88563B" d="M355 806h10l-1 2c-2.285.414-2.285.414-5.062.625l-2.786.227L354 809z"/><path fill="#D6CCC5" d="M201 791c4.39.51 7.337 1.522 11 4l-2 2-9-5z"/><path fill="#3C1911" d="M171 767c3.914 1.27 5.79 2.512 8 6-2.782-.376-4.588-.673-6.812-2.437C171 769 171 769 171 767"/><path fill="#3C150B" d="M782 344q2.19.425 4.375.875l2.46.492C791 346 791 346 793 348l-10-1z"/><path fill="#3D170D" d="M812 905c2.867 1.285 4.976 2.571 7 5v2c-2.375-.687-2.375-.687-5-2-1.312-2.625-1.312-2.625-2-5"/><path fill="#C7BAB3" d="M751 847q1.723 1.432 3.438 2.875l1.933 1.617C758 853 758 853 759 855c-2.702-.365-4.584-.699-6.812-2.312C751 851 751 851 751 847"/><path fill="#5D2A12" d="m577 579 .75 1.688c1.466 2.712 3.28 4.948 5.25 7.312h-4c-2.29-3.435-2.178-4.985-2-9"/><path fill="#CEBFB6" d="m823 379 2 1c.633 2.066.633 2.066 1.125 4.563l.508 2.503L827 389l-3-1z"/><path fill="#F39036" d="M964 353h1l1 12h-3z"/><path fill="#C0B0A6" d="m802 897 7 6-1 3c-3.923-2.354-4.839-4.645-6-9"/><path fill="#42190C" d="M786 879c3.83 1.453 5.12 3.429 7 7-2.375-.687-2.375-.687-5-2-1.312-2.625-1.312-2.625-2-5"/><path fill="#D2C8C1" d="m221 800 10 2v1c-6.625 1.25-6.625 1.25-10-1z"/><path fill="#824123" d="M827 384c2.565 2.565 2.54 4.477 3 8l-3 1c-1.125-6.75-1.125-6.75 0-9"/><path fill="#CE5D03" d="M819 365h2c3.223 5.176 3.223 5.176 4 7l-1 3c-3.875-6.625-3.875-6.625-5-10"/><path fill="#71452E" d="m792 884 3 1 1 6c-2 0-2 0-4.125-2L790 887c1-2 1-2 2-3"/><path fill="#391911" d="M769 863c3.366 1.443 5.51 3.333 8 6l-1 3q-1.754-1.966-3.5-3.937l-1.969-2.215C769 864 769 864 769 863"/><path fill="#D2C2B9" d="m405 788 2 2c-2 2-2 2-5.625 2.125L398 792c2.386-1.892 4.072-3.024 7-4"/><path fill="#D7CCC6" d="M813 364c4.875 3.625 4.875 3.625 6 7h-3v-2h-2z"/><path fill="#DDCFC6" d="m731 354 2 2-5 4-2-2z"/><path fill="#944F2C" d="M22 264h2c1.25 6.625 1.25 6.625-1 10-1.607-3.215-1.057-6.436-1-10"/><path fill="#563224" d="M888 981c3.875 1.75 3.875 1.75 5 4l-2 2-3-2z"/><path fill="#BC612A" d="m923 968 4 1-6 5-2-2 4-2z"/><path fill="#E77822" d="M1053 831c2.29 3.435 2.178 4.985 2 9l-3 1z"/><path fill="#712E0A" d="M147 741c4.875 4.75 4.875 4.75 6 7l-3 1c-1.945-2.918-2.453-4.625-3-8"/><path fill="#491F0F" d="M143 738c1.875.625 1.875.625 4 2 1.25 3.125 1.25 3.125 2 6-1.875-.625-1.875-.625-4-2-1.25-3.125-1.25-3.125-2-6"/><path fill="#763C1A" d="m140 732 5 5-1 2h-3c-1-3-1-3-1-7"/><path fill="#C25A04" d="M126 706c3.672 3.08 4.568 5.248 5 10-3.442-2.66-3.995-5.903-5-10"/><path fill="#DAD2CD" d="m580 589 10 2v2l-9-1z"/><path fill="#D3C8C0" d="m372 803 3 1c-1.974 2.523-2.967 2.993-6.187 3.688L366 808l3-1v-2z"/><path fill="#F1862E" d="M251 642h1v6h2v5c-1.5-1-1.5-1-3-3-.273-2.718-.135-5.257 0-8"/></svg>