<?xml version="1.0" encoding="UTF-8"?>
<svg version="1.1" xmlns="http://www.w3.org/2000/svg" width="1080" height="1080">
<path d="M0 0 C2.12442094 0.00564412 4.24883388 0.00846223 6.3732605 0.0110817 C26.94070285 0.04794417 47.24717493 0.47819321 67.6545105 3.31805801 C68.9224646 3.48434708 70.1904187 3.65063614 71.49679565 3.82196426 C124.57867208 10.89343664 176.04843884 25.87214475 224.6545105 48.31805801 C225.6243689 48.76117325 226.59422729 49.20428848 227.59347534 49.66083145 C242.40092448 56.44850862 256.61533632 64.06368768 270.6545105 72.31805801 C271.4466394 72.78179825 272.23876831 73.24553848 273.05490112 73.72333145 C297.33263695 88.01233418 320.48149333 104.44304124 341.79904175 122.86493301 C344.64224603 125.30752165 347.54333673 127.66023717 350.4670105 130.00555801 C354.39568472 133.19974096 358.02540322 136.5286007 361.50997925 140.20087051 C363.41331034 142.07993326 365.36494856 143.81794711 367.3888855 145.56415176 C371.67861039 149.28960865 375.71240964 153.22765201 379.7170105 157.25555801 C380.3853894 157.92006973 381.05376831 158.58458145 381.74240112 159.26922989 C385.6800488 163.21453091 389.4302071 167.26953146 393.07125854 171.48968887 C395.1733747 173.91725216 397.35060734 176.27191369 399.5295105 178.63055801 C404.4464538 184.03476597 409.11539739 189.59468381 413.6545105 195.31805801 C414.17029663 195.96661758 414.68608276 196.61517715 415.21749878 197.28339005 C433.26916812 220.04736348 449.47991452 243.9486704 463.6545105 269.31805801 C464.16481812 270.22507462 464.67512573 271.13209122 465.20089722 272.06659317 C499.63706339 333.49468284 521.42943638 402.23831981 528.6545105 472.31805801 C528.74064606 473.12915024 528.82678162 473.94024246 528.91552734 474.77591324 C530.67053471 491.73193969 531.01854702 508.6290587 530.97256851 525.66354752 C530.96692439 527.78796845 530.96410628 529.9123814 530.96148682 532.03680801 C530.92462434 552.60425036 530.4943753 572.91072244 527.6545105 593.31805801 C527.4050769 595.21998917 527.4050769 595.21998917 527.15060425 597.16034317 C520.07913187 650.2422196 505.10042377 701.71198636 482.6545105 750.31805801 C482.21139526 751.28791641 481.76828003 752.25777481 481.31173706 753.25702286 C474.52405989 768.06447199 466.90888083 782.27888384 458.6545105 796.31805801 C458.19077026 797.11018692 457.72703003 797.90231583 457.24923706 798.71844864 C442.96023433 822.99618447 426.52952727 846.14504085 408.1076355 867.46258926 C405.66504687 870.30579355 403.31233134 873.20688425 400.9670105 876.13055801 C397.77282755 880.05923223 394.44396782 883.68895074 390.771698 887.17352676 C388.89263525 889.07685785 387.1546214 891.02849608 385.40841675 893.05243301 C381.68295986 897.34215791 377.7449165 901.37595716 373.7170105 905.38055801 C373.05249878 906.04893692 372.38798706 906.71731583 371.70333862 907.40594864 C367.7580376 911.34359632 363.70303705 915.09375461 359.48287964 918.73480606 C357.05531635 920.83692222 354.70065482 923.01415486 352.3420105 925.19305801 C346.93780255 930.11000131 341.3778847 934.77894491 335.6545105 939.31805801 C335.00595093 939.83384415 334.35739136 940.34963028 333.68917847 940.8810463 C310.92520503 958.93271564 287.02389811 975.14346204 261.6545105 989.31805801 C260.7474939 989.82836563 259.84047729 990.33867325 258.90597534 990.86444473 C197.47788567 1025.3006109 128.7342487 1047.09298389 58.6545105 1054.31805801 C57.84341827 1054.40419357 57.03232605 1054.49032913 56.19665527 1054.57907486 C39.24062882 1056.33408223 22.34350981 1056.68209454 5.309021 1056.63611603 C3.18460006 1056.63047191 1.06018712 1056.6276538 -1.0642395 1056.62503433 C-21.63168185 1056.58817186 -41.93815393 1056.15792282 -62.3454895 1053.31805801 C-64.24742065 1053.06862442 -64.24742065 1053.06862442 -66.18777466 1052.81415176 C-119.26965109 1045.74267939 -170.73941785 1030.76397128 -219.3454895 1008.31805801 C-220.3153479 1007.87494278 -221.2852063 1007.43182755 -222.28445435 1006.97528458 C-237.09190348 1000.18760741 -251.30631532 992.57242835 -265.3454895 984.31805801 C-266.13761841 983.85431778 -266.92974731 983.39057755 -267.74588013 982.91278458 C-292.02361596 968.62378185 -315.17247234 952.19307479 -336.49002075 933.77118301 C-339.33322504 931.32859438 -342.23431573 928.97587885 -345.1579895 926.63055801 C-349.08666372 923.43637506 -352.71638222 920.10751533 -356.20095825 916.43524551 C-358.10428934 914.55618276 -360.05592757 912.81816892 -362.0798645 911.07196426 C-366.3695894 907.34650737 -370.40338865 903.40846402 -374.4079895 899.38055801 C-375.07636841 898.7160463 -375.74474731 898.05153458 -376.43338013 897.36688614 C-380.3710278 893.42158511 -384.1211861 889.36658456 -387.76223755 885.14642715 C-389.86435371 882.71886387 -392.04158635 880.36420234 -394.2204895 878.00555801 C-399.1374328 872.60135006 -403.80637639 867.04143222 -408.3454895 861.31805801 C-408.86127563 860.66949844 -409.37706177 860.02093887 -409.90847778 859.35272598 C-427.96014713 836.58875254 -444.17089353 812.68744563 -458.3454895 787.31805801 C-458.85579712 786.41104141 -459.36610474 785.50402481 -459.89187622 784.56952286 C-494.32804239 723.14143319 -516.12041538 654.39779622 -523.3454895 584.31805801 C-523.43162506 583.50696579 -523.51776062 582.69587357 -523.60650635 581.86020279 C-525.36151371 564.90417634 -525.70952603 548.00705733 -525.66354752 530.97256851 C-525.65790339 528.84814757 -525.65508528 526.72373463 -525.65246582 524.59930801 C-525.61560334 504.03186566 -525.18535431 483.72539359 -522.3454895 463.31805801 C-522.17920044 462.05010391 -522.01291138 460.78214981 -521.84158325 459.47577286 C-514.77011088 406.39389643 -499.79140277 354.92412967 -477.3454895 306.31805801 C-476.90237427 305.34819962 -476.45925903 304.37834122 -476.00271606 303.37909317 C-469.21503889 288.57164403 -461.59985983 274.35723219 -453.3454895 260.31805801 C-452.88174927 259.52592911 -452.41800903 258.7338002 -451.94021606 257.91766739 C-437.65121333 233.63993156 -421.22050628 210.49107518 -402.7986145 189.17352676 C-400.35602587 186.33032248 -398.00331034 183.42923178 -395.6579895 180.50555801 C-392.46380655 176.5768838 -389.13494682 172.94716529 -385.462677 169.46258926 C-383.58361425 167.55925818 -381.8456004 165.60761995 -380.09939575 163.58368301 C-376.37393886 159.29395812 -372.4358955 155.26015887 -368.4079895 151.25555801 C-367.74347778 150.58717911 -367.07896606 149.9188002 -366.39431763 149.23016739 C-362.4490166 145.29251971 -358.39401605 141.54236142 -354.17385864 137.90130997 C-351.74629536 135.79919381 -349.39163383 133.62196117 -347.0329895 131.44305801 C-341.62878155 126.52611471 -336.06886371 121.85717112 -330.3454895 117.31805801 C-329.69692993 116.80227188 -329.04837036 116.28648575 -328.38015747 115.75506973 C-305.61618403 97.70340039 -281.71487712 81.49265399 -256.3454895 67.31805801 C-255.4384729 66.8077504 -254.5314563 66.29744278 -253.59695435 65.7716713 C-192.16886467 31.33550512 -123.42522771 9.54313213 -53.3454895 2.31805801 C-52.53439728 2.23192245 -51.72330505 2.1457869 -50.88763428 2.05704117 C-33.93160783 0.3020338 -17.03448882 -0.04597851 0 0 Z " fill="#FEFEFE" transform="translate(537.3454895019531,11.681941986083984)"/>
<path d="M0 0 C4.9251583 2.79221573 8.36734967 6.83667763 11.98828125 11.12109375 C14.04597793 13.4721122 16.34900608 15.2549719 18.796875 17.1875 C20.30753998 18.85569421 21.74838117 20.56562261 23.171875 22.30859375 C25.26298277 24.72643711 27.5288871 26.93460754 29.796875 29.1875 C31.02253174 30.40530151 31.02253174 30.40530151 32.27294922 31.64770508 C33.1238916 32.49228271 33.97483398 33.33686035 34.8515625 34.20703125 C36.29775774 35.64584458 37.74346645 37.08514481 39.18896484 38.5246582 C40.173087 39.50375767 41.15810562 40.48195695 42.14404297 41.45922852 C47.3313239 46.60231443 52.46010338 51.75010465 57.16845703 57.3425293 C59.27816956 59.7327988 61.52879475 61.94615393 63.796875 64.1875 C65.06164886 65.4460802 66.32592707 66.7051586 67.58984375 67.96459961 C68.29407471 68.66560287 68.99830566 69.36660614 69.72387695 70.08885193 C72.91116196 73.26273323 76.09578472 76.43928014 79.28027344 79.6159668 C80.95711287 81.28776335 82.63484678 82.95866323 84.31347656 84.62866211 C86.74782611 87.05084468 89.17889857 89.47627558 91.609375 91.90234375 C92.35533936 92.64314682 93.10130371 93.38394989 93.86987305 94.14720154 C97.73789377 98.0148074 101.3425914 101.94825861 104.796875 106.1875 C105.68375 107.05375 106.570625 107.92 107.484375 108.8125 C110.92444391 112.34554375 112.09428449 115.07300285 112.171875 120 C112.0379484 125.05944918 111.09220506 128.34383732 107.796875 132.1875 C101.97651557 137.14843028 96.84641331 137.88465711 89.390625 137.67578125 C87.94266541 137.66516914 87.94266541 137.66516914 86.4654541 137.65434265 C83.4084437 137.62654686 80.35332363 137.56383661 77.296875 137.5 C75.21356828 137.47489797 73.1302326 137.45208815 71.046875 137.43164062 C65.96282292 137.37676877 60.88016848 137.29059975 55.796875 137.1875 C55.79909561 138.29182373 55.80131622 139.39614746 55.80360413 140.53393555 C55.83181937 155.08511463 55.84900392 169.63629757 55.859375 184.1875 C55.86065903 185.98591969 55.86065903 185.98591969 55.86196899 187.82067108 C55.88526333 224.98049021 55.70705407 262.13421731 55.33226013 299.29208374 C55.00012668 332.33556661 54.67409714 365.37869351 54.61962891 398.42401123 C54.61389428 401.86548986 54.60366025 405.30690068 54.58886719 408.74835205 C54.1850123 440.05561999 54.1850123 440.05561999 58.39851379 470.97521973 C58.796875 473.1875 58.796875 473.1875 58.796875 477.1875 C59.456875 477.1875 60.116875 477.1875 60.796875 477.1875 C61.14878906 478.21488281 61.50070312 479.24226563 61.86328125 480.30078125 C67.04588703 495.01688832 74.19278197 508.68494186 87.796875 517.1875 C87.796875 517.8475 87.796875 518.5075 87.796875 519.1875 C88.83908203 519.59548828 88.83908203 519.59548828 89.90234375 520.01171875 C91.87730475 520.81396337 93.83814652 521.65164848 95.78515625 522.51953125 C102.1531061 525.35555122 108.52352846 527.89420662 115.171875 530 C115.81294189 530.20665283 116.45400879 530.41330566 117.11450195 530.6262207 C125.57791604 533.22254077 133.83733115 533.36950029 142.609375 533.375 C143.62580078 533.38724609 144.64222656 533.39949219 145.68945312 533.41210938 C151.79156729 533.4237769 157.45677163 532.88887508 163.4284668 531.6184082 C165.796875 531.1875 165.796875 531.1875 169.796875 531.1875 C169.796875 530.5275 169.796875 529.8675 169.796875 529.1875 C170.5703125 528.94515625 171.34375 528.7028125 172.140625 528.453125 C178.3476551 526.45581333 184.01553948 524.18522953 189.796875 521.1875 C190.456875 521.1875 191.116875 521.1875 191.796875 521.1875 C192.126875 520.1975 192.456875 519.2075 192.796875 518.1875 C194.546875 516.93359375 194.546875 516.93359375 196.796875 515.625 C214.90352573 503.81134005 223.15842041 481.62529387 227.55712891 461.37670898 C228.3399004 457.65352663 229.0770493 453.92335519 229.796875 450.1875 C230.456875 450.1875 231.116875 450.1875 231.796875 450.1875 C232.77658569 434.37285667 232.91002708 418.60086243 232.84147453 402.76041603 C232.82275473 398.41236281 232.81347233 394.06431683 232.80555725 389.7162323 C232.78172222 377.3686462 232.74579607 365.02111091 232.70092773 352.67358398 C232.67608919 345.81545331 232.65890641 338.9573421 232.64936835 332.09917277 C232.64399544 328.49808582 232.63494003 324.89710366 232.61598015 321.29606056 C232.46557149 292.08817929 234.2403372 263.69216435 240.796875 235.1875 C241.456875 235.1875 242.116875 235.1875 242.796875 235.1875 C242.94382812 233.75857422 242.94382812 233.75857422 243.09375 232.30078125 C243.79077591 227.45206427 245.40254143 222.97298777 247.046875 218.375 C247.52048462 217.03997437 247.52048462 217.03997437 248.00366211 215.67797852 C250.19894242 209.59732529 252.64419177 203.83815588 255.796875 198.1875 C256.21066406 197.37152344 256.62445312 196.55554688 257.05078125 195.71484375 C272.86357245 165.12542715 299.62885181 136.33671539 330.796875 121.1875 C331.456875 121.1875 332.116875 121.1875 332.796875 121.1875 C332.796875 120.5275 332.796875 119.8675 332.796875 119.1875 C335.73030398 117.84507579 338.66923752 116.51515933 341.609375 115.1875 C342.85944336 114.61515625 342.85944336 114.61515625 344.13476562 114.03125 C344.93720703 113.6703125 345.73964844 113.309375 346.56640625 112.9375 C347.30479736 112.60234375 348.04318848 112.2671875 348.80395508 111.921875 C350.796875 111.1875 350.796875 111.1875 353.796875 111.1875 C353.796875 110.5275 353.796875 109.8675 353.796875 109.1875 C368.55903121 103.87885317 383.22449903 99.69992139 398.8046875 97.6484375 C401.67303719 97.50840629 401.67303719 97.50840629 402.796875 96.1875 C409.71923252 95.01857496 416.6021792 94.99605589 423.609375 95 C425.38405151 94.9990332 425.38405151 94.9990332 427.19458008 94.99804688 C437.16404749 95.0573769 446.92543345 95.8408478 456.796875 97.1875 C456.796875 97.8475 456.796875 98.5075 456.796875 99.1875 C457.63992188 99.19136719 457.63992188 99.19136719 458.5 99.1953125 C474.66465839 99.93908513 489.81355904 106.49918496 503.796875 114.1875 C504.92996094 114.7959375 506.06304688 115.404375 507.23046875 116.03125 C509.76296791 117.39912216 512.28486265 118.78247614 514.796875 120.1875 C514.796875 120.8475 514.796875 121.5075 514.796875 122.1875 C515.52777344 122.44660156 516.25867188 122.70570313 517.01171875 122.97265625 C535.07417302 130.85123027 552.44126216 153.05849368 560.796875 170.1875 C561.26633545 170.64761475 561.7357959 171.10772949 562.21948242 171.58178711 C572.02168674 181.559979 577.11971093 198.94851448 580.796875 212.1875 C581.10794189 213.30125 581.10794189 213.30125 581.42529297 214.4375 C585.06825661 227.70767902 585.06825661 227.70767902 584.796875 233.1875 C585.456875 233.1875 586.116875 233.1875 586.796875 233.1875 C590.16205777 251.97371449 589.94222621 270.82412039 589.91294062 289.84716856 C589.90856891 293.41813684 589.91008725 296.98910365 589.9108429 300.56007385 C589.91136392 306.72742717 589.90826146 312.89476981 589.90260506 319.06212044 C589.89443251 327.97876331 589.89186898 336.89540108 589.89061707 345.8120473 C589.88843553 360.28331114 589.88179994 374.75456931 589.87231445 389.22583008 C589.863117 403.27237927 589.85604761 417.31892691 589.85180664 431.36547852 C589.85154392 432.23321493 589.85128119 433.10095133 589.85101051 433.99498279 C589.84970535 438.3487308 589.84844167 442.70247882 589.84719861 447.05622685 C589.836854 483.09998857 589.8192603 519.14374384 589.796875 555.1875 C590.58090698 555.18083817 591.36493896 555.17417633 592.17272949 555.16731262 C599.58715543 555.10702428 607.00146132 555.06143602 614.41606903 555.03206348 C618.22735614 555.01645475 622.0384395 554.9953051 625.84960938 554.96118164 C629.53249596 554.9284158 633.21518744 554.910611 636.89820862 554.90286827 C638.29833545 554.89735547 639.69845246 554.88659074 641.09849548 554.87030983 C657.78084348 554.68415336 657.78084348 554.68415336 664.734375 560.75 C667.5992567 564.13576928 667.93465136 565.77464931 667.921875 570.125 C667.92445313 571.00027344 667.92703125 571.87554688 667.9296875 572.77734375 C667.796875 575.1875 667.796875 575.1875 666.796875 578.1875 C666.136875 578.1875 665.476875 578.1875 664.796875 578.1875 C664.56551849 578.74361843 664.33416199 579.29973686 664.09579468 579.87270737 C662.44698171 582.81104156 660.39732873 584.83897259 658.01416016 587.22418213 C657.52383615 587.71762611 657.03351215 588.21107009 656.52832985 588.71946692 C654.88559313 590.3701753 653.23580688 592.01364949 651.5859375 593.65722656 C650.40622107 594.83965315 649.22693051 596.02250478 648.04803467 597.20574951 C644.84618598 600.4167195 641.6380388 603.62132667 638.42845917 606.82456684 C635.07382542 610.17414166 631.72406885 613.5285881 628.37353516 616.88226318 C622.74806077 622.51137651 617.11838124 628.13625845 611.48632812 633.75878906 C604.96714433 640.26707789 598.45521122 646.78255486 591.94697762 653.30179238 C586.36421503 658.89361727 580.77758142 664.48155224 575.18766594 670.06622672 C571.84660294 673.40416556 568.50692053 676.74345553 565.17071533 680.08625031 C562.03653119 683.22619229 558.89753241 686.36123856 555.75467682 689.49250031 C554.59917671 690.64534589 553.44539369 691.79991534 552.29341888 692.95628357 C550.72670186 694.52842606 549.15402022 696.09434033 547.57958984 697.65875244 C546.6991098 698.53847843 545.81862976 699.41820442 544.91146851 700.32458878 C542.796875 702.1875 542.796875 702.1875 540.796875 702.1875 C540.796875 702.8475 540.796875 703.5075 540.796875 704.1875 C537.69623977 705.22104508 535.48243432 705.32114996 532.234375 705.3125 C531.26371094 705.31507813 530.29304687 705.31765625 529.29296875 705.3203125 C526.796875 705.1875 526.796875 705.1875 524.796875 704.1875 C524.796875 703.5275 524.796875 702.8675 524.796875 702.1875 C524.23871094 701.94515625 523.68054688 701.7028125 523.10546875 701.453125 C517.31285422 698.27747845 512.1078171 693.00960465 507.984375 687.875 C505.93181096 685.15423556 505.93181096 685.15423556 503.421875 683.3125 C500.37207177 680.84361167 498.03080393 678.04851619 495.4921875 675.0703125 C493.46312055 672.81683262 491.17340596 671.06370865 488.796875 669.1875 C487.58278122 667.71780753 486.36963731 666.24712076 485.1796875 664.7578125 C483.67069298 663.04420856 482.05580709 661.6418551 480.296875 660.1875 C477.99567081 658.28477272 476.03573025 656.39524966 474.171875 654.0625 C471.96350076 651.18380746 471.96350076 651.18380746 469.421875 649.3125 C466.37207177 646.84361167 464.03080393 644.04851619 461.4921875 641.0703125 C459.46312055 638.81683262 457.17340596 637.06370865 454.796875 635.1875 C453.58278122 633.71780753 452.36963731 632.24712076 451.1796875 630.7578125 C449.67069298 629.04420856 448.05580709 627.6418551 446.296875 626.1875 C443.99567081 624.28477272 442.03573025 622.39524966 440.171875 620.0625 C437.96350076 617.18380746 437.96350076 617.18380746 435.421875 615.3125 C433.06412697 613.40384683 431.31423428 611.5485708 429.359375 609.25 C427.25818359 606.78417668 425.20865001 604.57757321 422.671875 602.5625 C419.60729103 600.03088715 417.329996 597.24023557 414.796875 594.1875 C414.013125 593.56875 413.229375 592.95 412.421875 592.3125 C408.74096134 589.33271275 405.83263769 585.80734054 402.796875 582.1875 C402.013125 581.259375 401.229375 580.33125 400.421875 579.375 C397.40006732 575.30718197 397.29502546 571.08517975 397.796875 566.1875 C399.59590273 560.99030878 402.04753173 558.85900559 406.796875 556.1875 C410.17666058 555.06090481 412.72503636 555.06729017 416.2878418 555.07397461 C416.9417691 555.07382858 417.59569641 555.07368256 418.2694397 555.0735321 C420.42835826 555.07422812 422.58719028 555.08200592 424.74609375 555.08984375 C426.24396213 555.09170904 427.74183111 555.09313242 429.23970032 555.09413147 C433.18032519 555.09794793 437.12091314 555.1077708 441.06152344 555.11883545 C445.08332825 555.12906828 449.10513904 555.1336331 453.12695312 555.13867188 C461.01694401 555.14939384 468.90690491 555.16645983 476.796875 555.1875 C476.71452262 523.80730654 476.62231894 492.42716017 476.51682339 461.04703669 C476.50430816 457.32180399 476.49187482 453.59657103 476.47949219 449.87133789 C476.47702619 449.12987445 476.4745602 448.38841101 476.47201948 447.62447897 C476.43255875 435.70122798 476.39969501 423.7779678 476.36937518 411.85469045 C476.33799154 399.57238966 476.29927325 387.29012688 476.25408494 375.00786906 C476.22897916 368.1293257 476.20703887 361.25080537 476.19353104 354.37222862 C476.12844673 322.21225522 475.87880782 290.22293431 472.796875 258.1875 C472.136875 258.1875 471.476875 258.1875 470.796875 258.1875 C470.41015625 256.9809375 470.0234375 255.774375 469.625 254.53125 C469.09928687 252.91655967 468.5732266 251.30198232 468.046875 249.6875 C467.79421875 248.89601563 467.5415625 248.10453125 467.28125 247.2890625 C464.67794006 239.34896717 462.00585896 232.94216806 455.796875 227.1875 C455.136875 226.218125 454.476875 225.24875 453.796875 224.25 C449.84934243 219.38764242 443.43177511 217.49051843 437.796875 215.1875 C436.98863281 214.85492188 436.18039062 214.52234375 435.34765625 214.1796875 C429.19637498 211.7660419 423.74442472 211.01872469 417.171875 211.0625 C416.47126953 211.06443359 415.77066406 211.06636719 415.04882812 211.06835938 C409.26295894 211.11600148 403.5441023 211.50562557 397.796875 212.1875 C397.796875 212.8475 397.796875 213.5075 397.796875 214.1875 C397.06984375 214.42082031 396.3428125 214.65414062 395.59375 214.89453125 C382.27667314 219.7262399 370.96000472 230.43392963 364.79980469 243.26416016 C362.05051561 249.39892647 359.33960673 255.6297578 357.796875 262.1875 C357.136875 262.1875 356.476875 262.1875 355.796875 262.1875 C355.15322139 265.5383401 354.53608084 268.8936482 353.921875 272.25 C353.74785156 273.15427734 353.57382812 274.05855469 353.39453125 274.99023438 C350.03394195 293.59794178 349.48504871 312.51514506 349.234375 331.375 C349.19786133 333.60735167 349.1606456 335.83969195 349.12280273 338.07202148 C348.91857518 350.55933185 348.77272589 363.04715322 348.63981628 375.53538513 C348.60404588 378.89336121 348.56702536 382.25131958 348.52876282 385.60926819 C348.51923678 386.44553458 348.50971075 387.28180098 348.49989605 388.14340878 C348.48059154 389.83423915 348.46121856 391.52506875 348.44177723 393.21589756 C348.39492594 397.349822 348.35187731 401.48371823 348.31759644 405.61776733 C348.18612563 421.42393209 347.9755188 437.19088654 346.88671875 452.96484375 C346.81038712 454.09330215 346.73405548 455.22176056 346.65541077 456.38441467 C346.20463382 462.21946717 345.34758212 467.54922703 343.796875 473.1875 C343.46681251 475.07804287 343.16589465 476.97404379 342.90234375 478.875 C341.13024816 491.07838222 339.06999333 502.59494351 334.796875 514.1875 C334.47976563 515.05503906 334.16265625 515.92257812 333.8359375 516.81640625 C332.87845851 519.30012312 331.84499842 521.74067395 330.796875 524.1875 C330.34054687 525.31800781 329.88421875 526.44851563 329.4140625 527.61328125 C326.01670374 535.86870403 322.01696254 543.67401387 317.609375 551.4375 C316.84270508 552.79548706 316.84270508 552.79548706 316.06054688 554.1809082 C315.56748047 555.03386475 315.07441406 555.88682129 314.56640625 556.765625 C314.12917236 557.52262695 313.69193848 558.27962891 313.24145508 559.05957031 C311.65041444 561.40324282 309.82976475 563.22234758 307.796875 565.1875 C306.60256747 566.81338684 305.4377685 568.46119698 304.296875 570.125 C299.76026937 576.44926436 294.63453127 582.05657086 289.2578125 587.66357422 C287.92875334 589.04993573 286.61210551 590.44816878 285.296875 591.84765625 C280.58944577 596.73316258 275.60741728 601.10498947 270.296875 605.3125 C269.68473145 605.7986377 269.07258789 606.28477539 268.44189453 606.78564453 C264.0511706 610.1875 264.0511706 610.1875 261.796875 610.1875 C261.796875 610.8475 261.796875 611.5075 261.796875 612.1875 C260.39501953 613.23730469 260.39501953 613.23730469 258.4296875 614.359375 C257.71377441 614.77356689 256.99786133 615.18775879 256.26025391 615.61450195 C255.48858887 616.05109131 254.71692383 616.48768066 253.921875 616.9375 C252.3486806 617.84196501 250.77576239 618.74691058 249.203125 619.65234375 C248.44 620.0891748 247.676875 620.52600586 246.890625 620.97607422 C244.36967884 622.43467203 241.89515599 623.96222951 239.421875 625.5 C226.65317842 633.1875 226.65317842 633.1875 220.796875 633.1875 C220.796875 633.8475 220.796875 634.5075 220.796875 635.1875 C216.54972196 636.53002168 212.29871988 637.85991974 208.046875 639.1875 C206.8403125 639.5690625 205.63375 639.950625 204.390625 640.34375 C202.65039062 640.88515625 202.65039062 640.88515625 200.875 641.4375 C199.80668945 641.77265625 198.73837891 642.1078125 197.63769531 642.453125 C194.796875 643.1875 194.796875 643.1875 190.796875 643.1875 C190.796875 643.8475 190.796875 644.5075 190.796875 645.1875 C162.98267961 651.3987175 131.74679549 652.00607081 103.796875 646.1875 C103.796875 645.5275 103.796875 644.8675 103.796875 644.1875 C103.1997168 644.14939209 102.60255859 644.11128418 101.98730469 644.07202148 C95.3867459 643.54543561 89.373992 642.15912286 83.046875 640.25 C82.14066406 639.98509766 81.23445312 639.72019531 80.30078125 639.44726562 C75.7686767 638.1140991 71.26653818 636.71932165 66.796875 635.1875 C66.796875 634.5275 66.796875 633.8675 66.796875 633.1875 C66.07016602 633.06076904 65.34345703 632.93403809 64.59472656 632.8034668 C60.01181518 631.79450646 55.84852059 629.84313145 51.546875 628 C50.64324219 627.62552734 49.73960937 627.25105469 48.80859375 626.86523438 C43.40125227 624.55836136 38.59851891 621.91849661 33.77490234 618.55932617 C30.53603417 616.31306595 27.09505726 614.42482694 23.66796875 612.484375 C23.05050781 612.05640625 22.43304688 611.6284375 21.796875 611.1875 C21.796875 610.5275 21.796875 609.8675 21.796875 609.1875 C20.92869141 608.76597656 20.92869141 608.76597656 20.04296875 608.3359375 C4.38277909 600.32881444 -9.88815038 585.21586549 -20.203125 571.1875 C-20.203125 570.5275 -20.203125 569.8675 -20.203125 569.1875 C-21.193125 568.8575 -22.183125 568.5275 -23.203125 568.1875 C-24.74744418 566.04604407 -26.14508959 563.93549114 -27.515625 561.6875 C-28.32341523 560.39142594 -29.13200769 559.09585152 -29.94140625 557.80078125 C-30.33150879 557.17252441 -30.72161133 556.54426758 -31.12353516 555.89697266 C-32.42032572 553.8435743 -33.80505896 551.86048874 -35.203125 549.875 C-42.16902188 539.43585648 -52.203125 524.11554191 -52.203125 511.1875 C-52.863125 511.1875 -53.523125 511.1875 -54.203125 511.1875 C-63.13853571 479.6122471 -65.26294376 448.08184523 -65.9675293 415.36425781 C-65.98592928 414.50990772 -66.00432926 413.65555763 -66.02328682 412.77531815 C-66.08414963 409.9127306 -66.14375665 407.05011891 -66.203125 404.1875 C-66.22401373 403.19467514 -66.24490246 402.20185028 -66.26642418 401.17893982 C-67.35718438 348.75825166 -67.32746397 296.34169566 -67.27515203 243.911919 C-67.26371465 232.23723437 -67.25841182 220.56254895 -67.25344861 208.88786006 C-67.24315953 184.98773382 -67.22571942 161.08761757 -67.203125 137.1875 C-68.06636887 137.19749275 -68.06636887 137.19749275 -68.947052 137.20768738 C-74.9493449 137.27417725 -80.95153275 137.31935721 -86.95410156 137.35229492 C-89.19275158 137.36735964 -91.43137219 137.38781533 -93.66992188 137.41381836 C-96.89200102 137.45030283 -100.11368911 137.46724983 -103.3359375 137.48046875 C-104.83158737 137.50369453 -104.83158737 137.50369453 -106.35745239 137.52738953 C-112.66273846 137.52890861 -117.24044707 136.92036853 -122.06640625 132.46875 C-122.54464844 131.8809375 -123.02289063 131.293125 -123.515625 130.6875 C-124.00675781 130.0996875 -124.49789062 129.511875 -125.00390625 128.90625 C-127.03182253 125.99979018 -127.3816812 123.32216353 -127.453125 119.875 C-127.49179688 118.76705078 -127.49179688 118.76705078 -127.53125 117.63671875 C-126.76908406 111.94769438 -123.46948476 108.08581134 -119.4921875 104.18359375 C-118.11933594 102.82524414 -118.11933594 102.82524414 -116.71875 101.43945312 C-115.7554017 100.50110352 -114.79185851 99.56295396 -113.828125 98.625 C-112.87169916 97.68365002 -111.91596381 96.74159794 -110.9609375 95.79882812 C-109.19434225 94.05828519 -107.42467192 92.32085358 -105.65087891 90.58764648 C-101.69888098 86.71251267 -97.82473386 82.80388248 -94.0877533 78.71957397 C-83.21811971 66.87448039 -71.74286899 55.61330759 -60.35516357 44.27087402 C-57.47905381 41.40510519 -54.60586647 38.53640945 -51.73242188 35.66796875 C-46.69335361 30.63836744 -41.65182183 25.61124782 -36.60838318 20.58602905 C-35.81464798 19.79451447 -35.02091278 19.00299988 -34.203125 18.1875 C-33.32193497 17.31332428 -32.44074493 16.43914856 -31.53285217 15.53848267 C-29.1734025 13.15750632 -27.00774439 10.67051217 -24.828125 8.125 C-17.94641833 0.53022175 -10.45225043 -3.85473065 0 0 Z " fill="#010101" transform="translate(269.203125,185.8125)"/>
</svg>
